<?xml version="1.0" encoding="UTF-8"?>
<svg version="1.1" xmlns="http://www.w3.org/2000/svg" width="240" height="240">
<path d="M0 0 C79.2 0 158.4 0 240 0 C240 79.2 240 158.4 240 240 C160.8 240 81.6 240 0 240 C0 160.8 0 81.6 0 0 Z " fill="#7486D7" transform="translate(0,0)"/>
<path d="M0 0 C79.2 0 158.4 0 240 0 C240 79.2 240 158.4 240 240 C160.8 240 81.6 240 0 240 C0 160.8 0 81.6 0 0 Z M38 53 C19.70367167 75.4374726 12.45712475 103.92642846 15.23876953 132.44824219 C19.00998513 161.63633257 33.86681247 186.87177809 57 205 C81.46142045 222.4996165 111.06880532 229.19546881 140.8984375 224.3515625 C168.18690946 218.61316425 193.72067672 200.4176181 208.9375 177.375 C224.10146434 152.56124017 229.50168414 123.19975891 222.90893555 94.6484375 C215.97151581 67.82024851 198.769009 44.3316641 175.06494141 29.81494141 C128.56100418 2.49429459 73.62379951 13.58122528 38 53 Z " fill="#F5F5F6" transform="translate(0,0)"/>
<path d="M0 0 C0 0.99 0 1.98 0 3 C-0.7528125 3.1959375 -1.505625 3.391875 -2.28125 3.59375 C-15.17009272 7.22264746 -27.185599 13.06943927 -38 21 C-34.57551123 19.6730106 -31.29735667 18.17599312 -28 16.5625 C-22.93660728 14.25666736 -18.03309852 12.86297741 -12.58984375 11.7578125 C-10.10430391 11.23311747 -7.63698826 10.61695875 -5.19140625 9.9296875 C4.49384149 7.27282591 13.77316794 6.63202498 23.8125 6.625 C25.01583984 6.62346924 26.21917969 6.62193848 27.45898438 6.62036133 C38.47030341 6.75551123 49.19580819 8.17924185 59.8125 11.125 C60.55951172 11.33092773 61.30652344 11.53685547 62.07617188 11.74902344 C70.22789926 14.14234862 77.56923418 17.94340846 85 22 C85.66 22.33 86.32 22.66 87 23 C83.93320535 19.57590889 80.88283477 17.72657315 76.75 15.75 C75.67234375 15.22921875 74.5946875 14.7084375 73.484375 14.171875 C72.66453125 13.78515625 71.8446875 13.3984375 71 13 C71 12.34 71 11.68 71 11 C70.03513672 10.86271484 70.03513672 10.86271484 69.05078125 10.72265625 C64.89708631 9.73874644 61.11113187 8.09838357 57.1875 6.4375 C56.39923828 6.10814453 55.61097656 5.77878906 54.79882812 5.43945312 C52.86416204 4.63041094 50.93184247 3.81576148 49 3 C49.33 2.01 49.66 1.02 50 0 C55.74842956 -0.28283496 60.49769238 0.70150557 66 2.3125 C67.15242188 2.63250977 67.15242188 2.63250977 68.328125 2.95898438 C74.47020115 4.70864042 80.29908301 6.84535617 85.8125 10.125 C87.51652021 11.12736483 89.23174207 12.11587103 91 13 C91 13.66 91 14.32 91 15 C91.763125 15.226875 92.52625 15.45375 93.3125 15.6875 C101.07311041 19.47756555 104.38744137 34.73269902 107.21875 42.5625 C110.06792492 50.8654604 111.80241993 59.46263222 113.53857422 68.05493164 C113.93702198 70.06461324 113.93702198 70.06461324 115 72 C115.13415472 74.6723621 115.04318541 77.32250488 115 80 C115.66 80 116.32 80 117 80 C118.29989611 88.51896198 119.24443714 97.00331324 119.4375 105.625 C119.47166016 106.36991699 119.50582031 107.11483398 119.54101562 107.88232422 C119.57459111 112.00184977 119.20332926 113.69610717 116.8359375 117.234375 C104.93777031 128.83754631 88.34860819 138.58722593 71.2265625 138.55859375 C67.50435712 137.62477731 66.03593318 135.02994773 63.99609375 131.9453125 C63 130 63 130 63 128 C61.68 127.34 60.36 126.68 59 126 C59 125.34 59 124.68 59 124 C59.72703125 123.731875 60.4540625 123.46375 61.203125 123.1875 C71.05908932 119.34620109 80.60828307 114.68308716 87 106 C86.443125 106.45375 85.88625 106.9075 85.3125 107.375 C82.90580664 109.06618993 80.74004334 109.94134689 78 111 C76.845 111.598125 75.69 112.19625 74.5 112.8125 C58.28949127 120.96389433 58.28949127 120.96389433 50 120 C54.56460494 115.20716481 58.48061723 113.41179547 64.85546875 111.84375 C65.56316406 111.5653125 66.27085937 111.286875 67 111 C68.180933 107.457201 68.27028374 104.71640139 68 101 C67.01 100.34 66.02 99.68 65 99 C63.76043905 96.23482558 63.94620132 95.15780946 64.9375 92.25 C65.288125 91.5075 65.63875 90.765 66 90 C66.66 90 67.32 90 68 90 C68.66 87.36 69.32 84.72 70 82 C70.763125 82.020625 71.52625 82.04125 72.3125 82.0625 C75.10185786 82.12942841 75.10185786 82.12942841 78 81 C78.11138159 75.54230189 77.91657981 70.38490641 77 65 C74.03 64.01 74.03 64.01 71 63 C70.67 61.35 70.34 59.7 70 58 C68.783125 57.71125 67.56625 57.4225 66.3125 57.125 C63.08185352 56.32164208 60.05679065 55.33734591 57 54 C57 53.34 57 52.68 57 52 C56.113125 51.79375 55.22625 51.5875 54.3125 51.375 C50.03460421 49.59926967 48.65599807 47.74964433 46 44 C46 43.34 46 42.68 46 42 C45.01 42 44.02 42 43 42 C47.78062634 51.28003936 54.49647094 55.04280065 63.98828125 58.54296875 C67 60 67 60 68.40625 61.83203125 C69.12856484 64.46943082 69.22881539 66.76567239 69.1875 69.5 C69.17783203 70.90765625 69.17783203 70.90765625 69.16796875 72.34375 C69.01857816 74.70620585 68.66710889 76.73716665 68 79 C62.5764816 79.51652556 60.41158432 77.97106699 56 75 C52.30476048 74.28076792 52.30476048 74.28076792 49 74 C48 73 48 73 47.9375 70.4375 C47.958125 69.633125 47.97875 68.82875 48 68 C48.66 68 49.32 68 50 68 C50 66.02 50 64.04 50 62 C45.54834369 63.39909198 43.03393909 65.47407079 40 69 C38.23436352 72.62259899 37.7505006 75.48694774 37.8125 79.5 C37.81894531 80.4178125 37.82539063 81.335625 37.83203125 82.28125 C37.99621012 84.93865687 38.41265001 87.40626246 39 90 C37.68 90 36.36 90 35 90 C35 91.32 35 92.64 35 94 C33.515 93.505 33.515 93.505 32 93 C32 92.34 32 91.68 32 91 C31.01 91 30.02 91 29 91 C29 91.99 29 92.98 29 94 C27.02 93.01 27.02 93.01 25 92 C25 91.34 25 90.68 25 90 C20.05 90 15.1 90 10 90 C10.33 84.39 10.66 78.78 11 73 C4.34885072 76.59141063 4.34885072 76.59141063 1 83 C-6.26 83 -13.52 83 -21 83 C-20.01 85.97 -19.02 88.94 -18 92 C-18 96 -18 96 -20.4375 98.6875 C-21.283125 99.450625 -22.12875 100.21375 -23 101 C-24.49743119 102.49743119 -24.33202693 103.98824239 -24.5625 106.0625 C-24.706875 107.361875 -24.85125 108.66125 -25 110 C-31.625 109.25 -31.625 109.25 -35 107 C-28.80851518 114.79740119 -22.7967767 119.75490534 -13 122 C-13 122.66 -13 123.32 -13 124 C-12.01 124 -11.02 124 -10 124 C-12.52026245 129.42046396 -16.21747596 136.53345517 -22.03515625 138.7890625 C-35.39852641 139.33858426 -51.21042362 131.94746002 -61.0234375 123.1953125 C-62.74340236 121.50437658 -64.40535885 119.80946327 -66 118 C-66.55300781 117.44054687 -67.10601562 116.88109375 -67.67578125 116.3046875 C-69.63422333 112.89618948 -69.39976054 109.56926451 -69.3125 105.75 C-69.30412109 104.96383301 -69.29574219 104.17766602 -69.28710938 103.36767578 C-69.12952946 95.49971043 -68.18578375 87.77111853 -67 80 C-66.34 80 -65.68 80 -65 80 C-65.061875 78.96875 -65.12375 77.9375 -65.1875 76.875 C-65.16793481 65.76197302 -61.16518741 54.57204729 -58 44 C-57.34 44 -56.68 44 -56 44 C-55.938125 42.9275 -55.87625 41.855 -55.8125 40.75 C-55.06464585 34.7351159 -52.51791304 29.45799114 -50 24 C-49.71382812 23.31421875 -49.42765625 22.6284375 -49.1328125 21.921875 C-44.40109863 11.91767995 -30.89749671 6.64814766 -21 3 C-13.93041794 0.95847783 -7.36494566 -0.15808595 0 0 Z " fill="#FAFAFC" transform="translate(95,48)"/>
<path d="M0 0 C1.61841797 0.36544922 1.61841797 0.36544922 3.26953125 0.73828125 C19.78201929 5.12084097 33.77215608 14.35091606 46 26 C46.83917969 26.76054688 47.67835938 27.52109375 48.54296875 28.3046875 C65.46034672 44.20294632 76.97754434 68.63508911 78.14526367 91.89331055 C78.17002751 95.15814307 78.18565436 98.42256674 78.1875 101.6875 C78.19974609 102.80833984 78.21199219 103.92917969 78.22460938 105.08398438 C78.25827069 124.41679823 72.0137989 141.18020652 63 158 C62.01 156.68 61.02 155.36 60 154 C58.68 154.33 57.36 154.66 56 155 C58.77830571 151.3984926 61.7405666 148.17134061 65 145 C66.80794366 143.19205634 66.13228231 140.72691657 66.13867188 138.32177734 C66.1319043 137.14156006 66.1319043 137.14156006 66.125 135.9375 C66.12306641 135.13779785 66.12113281 134.3380957 66.11914062 133.51416016 C66.06340033 125.65322961 65.5978431 117.83601494 65 110 C64.34 110 63.68 110 63 110 C62.82984375 109.030625 62.6596875 108.06125 62.484375 107.0625 C58.99336364 87.55954711 54.18053784 68.6796337 45 51 C44.67451172 50.28972656 44.34902344 49.57945313 44.01367188 48.84765625 C42.73424869 46.51560551 41.42574428 45.97029771 39 45 C39 44.34 39 43.68 39 43 C38.0925 42.731875 37.185 42.46375 36.25 42.1875 C33 41 33 41 31.38671875 39.62109375 C27.75333777 37.15324906 23.7424145 36.13626306 19.5625 34.875 C18.71623047 34.61074219 17.86996094 34.34648438 16.99804688 34.07421875 C10.48535919 32.06482255 4.86974998 30.86529902 -2 31 C-2.33 31.66 -2.66 32.32 -3 33 C-2.41734375 33.15855469 -1.8346875 33.31710938 -1.234375 33.48046875 C5.7493444 35.4679738 12.34533188 38.10716317 19 41 C19 41.66 19 42.32 19 43 C19.78375 43.20625 20.5675 43.4125 21.375 43.625 C26.24735302 45.4731339 30.77926645 47.9303756 35 51 C35 51.66 35 52.32 35 53 C32.17263052 51.90882889 29.42689099 50.73232438 26.6796875 49.44921875 C19.29102479 45.99902345 11.95816915 43.19774988 4.0625 41.125 C3.29470215 40.92221436 2.5269043 40.71942871 1.73583984 40.51049805 C-18.56487168 35.44079501 -40.98197152 36.39824718 -61 42 C-63.24878433 42.44370632 -65.49872037 42.88163309 -67.75 43.3125 C-74.12695493 44.74853184 -79.42123058 47.53173646 -85.1015625 50.671875 C-88 52 -88 52 -91 51 C-82.134377 43.65754571 -72.56413435 39.3411294 -62 35 C-61.05511719 34.5978125 -60.11023438 34.195625 -59.13671875 33.78125 C-56.65038504 32.87217003 -54.62680203 32.84989703 -52 33 C-52 32.01 -52 31.02 -52 30 C-65.98442815 31.86967027 -65.98442815 31.86967027 -79 37 C-80.1446875 37.55171875 -81.289375 38.1034375 -82.46875 38.671875 C-96.85816334 45.61720487 -100.72769368 52.02033253 -105.94921875 66.828125 C-106.74045677 69.21654607 -107.44789105 71.54887895 -108 74 C-108.66 74 -109.32 74 -110 74 C-110.0825 75.03125 -110.165 76.0625 -110.25 77.125 C-110.73423774 81.11118894 -111.77425193 84.78498406 -112.9375 88.625 C-115.04831819 95.71734912 -116.15148282 102.65362753 -117 110 C-117.66 110 -118.32 110 -119 110 C-119.34649592 114.54157149 -119.62199438 119.08105971 -119.85351562 123.62988281 C-119.9986015 125.97737232 -120.22233763 128.30801685 -120.453125 130.6484375 C-121.0062629 137.83239201 -121.24320673 143.50344826 -116.46899414 149.27075195 C-109.64615274 156.43150373 -102.29118704 160.84763297 -93 164 C-97.29727397 165.30660357 -100.60215865 164.6596762 -105 164 C-105 163.34 -105 162.68 -105 162 C-105.99 161.67 -106.98 161.34 -108 161 C-108 162.98 -108 164.96 -108 167 C-107.34 167 -106.68 167 -106 167 C-105.67 168.65 -105.34 170.3 -105 172 C-122.06328152 155.94044093 -130.92896332 132.69773207 -132.1262207 109.56079102 C-132.97985738 80.78916998 -125.79894065 53.62296366 -106 32 C-105.24074219 31.15953125 -104.48148438 30.3190625 -103.69921875 29.453125 C-76.67977883 0.97437 -37.8508527 -8.90837129 0 0 Z " fill="#7486D7" transform="translate(147,18)"/>
<path d="M0 0 C0.99 0 1.98 0 3 0 C4.4296875 1.6796875 4.4296875 1.6796875 5.875 3.875 C8.23813327 7.21883357 9.86643565 9.02739662 14 10 C14 10.66 14 11.32 14 12 C14.77085937 12.20496094 15.54171875 12.40992187 16.3359375 12.62109375 C17.33882813 12.89050781 18.34171875 13.15992187 19.375 13.4375 C20.37273437 13.70433594 21.37046875 13.97117187 22.3984375 14.24609375 C25 15 25 15 27 16 C27.061875 16.61875 27.12375 17.2375 27.1875 17.875 C27.8959257 20.45071525 27.8959257 20.45071525 31.5625 21.75 C32.696875 22.1625 33.83125 22.575 35 23 C36.43911439 34.20295203 36.43911439 34.20295203 35 39 C32 41 32 41 28 41 C27.01 43.31 26.02 45.62 25 48 C24.34 48 23.68 48 23 48 C22.06619039 52.53140653 22.06619039 52.53140653 23 57 C24.485 57.99 24.485 57.99 26 59 C26.39118106 63.2247555 26.42664296 66.45279715 24 70 C21.828125 70.90625 21.828125 70.90625 19.25 71.5 C14.74045927 72.6829375 11.69090358 74.18325779 8 77 C8.66 77.66 9.32 78.32 10 79 C8.68 79 7.36 79 6 79 C5.97421875 79.62648438 5.9484375 80.25296875 5.921875 80.8984375 C5.83679688 82.12433594 5.83679688 82.12433594 5.75 83.375 C5.70359375 84.18710938 5.6571875 84.99921875 5.609375 85.8359375 C5 88 5 88 2.953125 89.2890625 C2.30859375 89.52367187 1.6640625 89.75828125 1 90 C-0.4783226 87.04335481 -0.06032783 84.25770263 0 81 C-2.83065005 81.34992583 -3.88184344 81.8767062 -5.88671875 83.96875 C-10.04044252 89.80738992 -11.88395302 93.80508744 -12 101 C-14.475 101.495 -14.475 101.495 -17 102 C-17.33 101.34 -17.66 100.68 -18 100 C-18.495 105.94 -18.495 105.94 -19 112 C-20.65 112 -22.3 112 -24 112 C-24.01401855 111.0553186 -24.01401855 111.0553186 -24.02832031 110.09155273 C-24.08238762 107.20610782 -24.16596125 104.32222136 -24.25 101.4375 C-24.26417969 100.44685547 -24.27835938 99.45621094 -24.29296875 98.43554688 C-24.50803066 91.96218331 -25.20535216 86.79464784 -30 82 C-32.05480249 81.52766619 -34.11952459 81.09834084 -36.1875 80.6875 C-65.46529563 74.53470437 -65.46529563 74.53470437 -72 68 C-70.68 68 -69.36 68 -68 68 C-68.103125 66.80375 -68.20625 65.6075 -68.3125 64.375 C-68.33070512 60.95850513 -67.81131276 59.19761597 -65.625 56.5625 C-63 54 -63 54 -61 53 C-61.309375 52.505 -61.61875 52.01 -61.9375 51.5 C-63 49 -63 49 -64 41 C-56.74 40.67 -49.48 40.34 -42 40 C-41.34 38.35 -40.68 36.7 -40 35 C-35.78378378 31 -35.78378378 31 -32 31 C-31.97264382 32.70824133 -31.95344494 34.41661405 -31.9375 36.125 C-31.92589844 37.07632813 -31.91429687 38.02765625 -31.90234375 39.0078125 C-32.00279401 42.08560857 -32.43036233 44.97688357 -33 48 C-31.96359375 47.95359375 -30.9271875 47.9071875 -29.859375 47.859375 C-28.48961221 47.82184725 -27.11981818 47.78544816 -25.75 47.75 C-24.72712891 47.69972656 -24.72712891 47.69972656 -23.68359375 47.6484375 C-20.07818187 47.5784295 -18.35931188 47.70848281 -15.515625 50.015625 C-15.01546875 50.67046875 -14.5153125 51.3253125 -14 52 C-14 51.01 -14 50.02 -14 49 C-11 49 -11 49 -9.3125 50.5 C-8.879375 50.995 -8.44625 51.49 -8 52 C-8 50.68 -8 49.36 -8 48 C-7.01 47.67 -6.02 47.34 -5 47 C-5.15984375 46.45085937 -5.3196875 45.90171875 -5.484375 45.3359375 C-6.70331643 39.81376345 -6.69197045 34.03746855 -4.875 28.6875 C-2.61942611 25.45451075 -0.27388311 22.25729838 3 20 C4.32 20 5.64 20 7 20 C7 21.98 7 23.96 7 26 C6.34 26 5.68 26 5 26 C5.495 28.475 5.495 28.475 6 31 C7.03125 31.0825 8.0625 31.165 9.125 31.25 C13.35832045 32.06935235 15.47957407 33.60311426 19 36 C20.98 36.33 22.96 36.66 25 37 C25.33 32.05 25.66 27.1 26 22 C25.34 21.67 24.68 21.34 24 21 C24 20.34 24 19.68 24 19 C23.10539062 18.68289062 22.21078125 18.36578125 21.2890625 18.0390625 C12.39528586 14.60670947 5.85741992 10.84138474 0 3 C0 2.01 0 1.02 0 0 Z " fill="#B9C3E8" transform="translate(138,90)"/>
<path d="M0 0 C0.66 0 1.32 0 2 0 C2.49628906 1.02738281 2.99257813 2.05476562 3.50390625 3.11328125 C13.39638207 23.40194812 25.98256714 40.32171143 45 53 C45 54.32 45 55.64 45 57 C43.68 57 42.36 57 41 57 C41 59.31 41 61.62 41 64 C34.4 64 27.8 64 21 64 C21 57.4 21 50.8 21 44 C14.4 44 7.8 44 1 44 C1 50.6 1 57.2 1 64 C-5.6 64 -12.2 64 -19 64 C-19 44.2 -19 24.4 -19 4 C-13.06 3.67 -7.12 3.34 -1 3 C-0.67 2.01 -0.34 1.02 0 0 Z " fill="#F8F9F9" transform="translate(19,156)"/>
<path d="M0 0 C0.02735618 1.70824133 0.04655506 3.41661405 0.0625 5.125 C0.07410156 6.07632813 0.08570313 7.02765625 0.09765625 8.0078125 C-0.00279401 11.08560857 -0.43036233 13.97688357 -1 17 C0.03640625 16.95359375 1.0728125 16.9071875 2.140625 16.859375 C3.51038779 16.82184725 4.88018182 16.78544816 6.25 16.75 C7.27287109 16.69972656 7.27287109 16.69972656 8.31640625 16.6484375 C11.92181813 16.5784295 13.64068812 16.70848281 16.484375 19.015625 C16.98453125 19.67046875 17.4846875 20.3253125 18 21 C18 20.01 18 19.02 18 18 C21 18 21 18 22.6875 19.5 C23.120625 19.995 23.55375 20.49 24 21 C24 19.68 24 18.36 24 17 C24.99 17 25.98 17 27 17 C27.99 19.97 27.99 19.97 29 23 C29.66 23 30.32 23 31 23 C31 23.99 31 24.98 31 26 C32.11375 25.95875 33.2275 25.9175 34.375 25.875 C38 26 38 26 40 28 C39.67 28.66 39.34 29.32 39 30 C38.77532169 31.53668865 38.59203195 33.07968054 38.4375 34.625 C38.35371094 35.44226563 38.26992187 36.25953125 38.18359375 37.1015625 C38.12300781 37.72804687 38.06242187 38.35453125 38 39 C37.01 39 36.02 39 35 39 C34.9071875 39.928125 34.9071875 39.928125 34.8125 40.875 C34 43 34 43 31.4375 44.25 C30.633125 44.4975 29.82875 44.745 29 45 C29 43.68 29 42.36 29 41 C29.66 41 30.32 41 31 41 C31.66 37.7 32.32 34.4 33 31 C32.34 31 31.68 31 31 31 C30.67 31.99 30.34 32.98 30 34 C29.67 33.34 29.34 32.68 29 32 C29.33 31.34 29.66 30.68 30 30 C29.22398437 30.28875 28.44796875 30.5775 27.6484375 30.875 C16.65384624 34.65357074 6.40859895 34.82537583 -5 33 C-4.76603516 34.04800781 -4.76603516 34.04800781 -4.52734375 35.1171875 C-4.33269531 36.02726562 -4.13804688 36.93734375 -3.9375 37.875 C-3.64166016 39.23238281 -3.64166016 39.23238281 -3.33984375 40.6171875 C-3 43 -3 43 -4 45 C-3.195625 45.268125 -2.39125 45.53625 -1.5625 45.8125 C-0.716875 46.204375 0.12875 46.59625 1 47 C1.33 47.99 1.66 48.98 2 50 C-4.15777397 50.36123367 -9.30552346 49.06401484 -15.1875 47.3125 C-16.11280518 47.04211914 -17.03811035 46.77173828 -17.99145508 46.49316406 C-35.83465621 41.16534379 -35.83465621 41.16534379 -40 37 C-38.68 37 -37.36 37 -36 37 C-36.103125 35.80375 -36.20625 34.6075 -36.3125 33.375 C-36.33070512 29.95850513 -35.81131276 28.19761597 -33.625 25.5625 C-31 23 -31 23 -29 22 C-29.309375 21.505 -29.61875 21.01 -29.9375 20.5 C-31 18 -31 18 -32 10 C-24.74 9.67 -17.48 9.34 -10 9 C-9.34 7.35 -8.68 5.7 -8 4 C-3.78378378 0 -3.78378378 0 0 0 Z " fill="#C6CDF1" transform="translate(106,121)"/>
<path d="M0 0 C0.99 0 1.98 0 3 0 C4.4296875 1.6796875 4.4296875 1.6796875 5.875 3.875 C8.23813327 7.21883357 9.86643565 9.02739662 14 10 C14 10.66 14 11.32 14 12 C14.77085937 12.20496094 15.54171875 12.40992187 16.3359375 12.62109375 C17.33882812 12.89050781 18.34171875 13.15992187 19.375 13.4375 C20.37273437 13.70433594 21.37046875 13.97117187 22.3984375 14.24609375 C25 15 25 15 27 16 C27.061875 16.61875 27.12375 17.2375 27.1875 17.875 C27.8959257 20.45071525 27.8959257 20.45071525 31.5625 21.75 C32.696875 22.1625 33.83125 22.575 35 23 C36.43911439 34.20295203 36.43911439 34.20295203 35 39 C32 41 32 41 28 41 C27.01 43.31 26.02 45.62 25 48 C24.34 48 23.68 48 23 48 C22.814375 48.5775 22.62875 49.155 22.4375 49.75 C20.33311534 53.04381947 17.55860041 54.61571143 14 56 C8.75459466 56.83260402 6.12000113 56.46163808 1.75 53.4375 C-2.74166124 49.63550328 -5.58536736 46.26940223 -6.33984375 40.3203125 C-6.59225193 32.86922289 -5.12819447 28.15237801 -0.0625 22.625 C1.40234375 21.1015625 1.40234375 21.1015625 3 20 C4.32 20 5.64 20 7 20 C7 21.98 7 23.96 7 26 C6.34 26 5.68 26 5 26 C5.33 27.65 5.66 29.3 6 31 C7.03125 31.0825 8.0625 31.165 9.125 31.25 C13.35832045 32.06935235 15.47957407 33.60311426 19 36 C20.98 36.33 22.96 36.66 25 37 C25.33 32.05 25.66 27.1 26 22 C25.34 21.67 24.68 21.34 24 21 C24 20.34 24 19.68 24 19 C23.10539062 18.68289062 22.21078125 18.36578125 21.2890625 18.0390625 C12.39528586 14.60670947 5.85741992 10.84138474 0 3 C0 2.01 0 1.02 0 0 Z " fill="#7586D5" transform="translate(138,90)"/>
<path d="M0 0 C0.99 0.33 1.98 0.66 3 1 C1.58495328 7.81795238 -0.98421843 13.73822453 -4 20 C-4.66 20 -5.32 20 -6 20 C-6 20.66 -6 21.32 -6 22 C-7.6875 23.6875 -7.6875 23.6875 -10 25 C-14.44427151 24.88604432 -16.94784643 23.12659634 -20 20 C-24.08392492 13.84939152 -26.72025396 8.41327007 -27 1 C-22.38 1.66 -17.76 2.32 -13 3 C-13 7.29 -13 11.58 -13 16 C-12.34 16 -11.68 16 -11 16 C-11 11.71 -11 7.42 -11 3 C-9.55625 2.690625 -8.1125 2.38125 -6.625 2.0625 C-4.21076314 1.54516353 -2.21029533 1.10514766 0 0 Z " fill="#F4F6FB" transform="translate(133,156)"/>
<path d="M0 0 C0.99 0 1.98 0 3 0 C3.66 1.98 4.32 3.96 5 6 C5.66 6 6.32 6 7 6 C7 6.99 7 7.98 7 9 C8.11375 8.95875 9.2275 8.9175 10.375 8.875 C14 9 14 9 16 11 C15.67 11.66 15.34 12.32 15 13 C14.77532169 14.53668865 14.59203195 16.07968054 14.4375 17.625 C14.35371094 18.44226563 14.26992187 19.25953125 14.18359375 20.1015625 C14.09271484 21.04128906 14.09271484 21.04128906 14 22 C13.01 22 12.02 22 11 22 C10.9071875 22.928125 10.9071875 22.928125 10.8125 23.875 C10 26 10 26 7.4375 27.25 C6.633125 27.4975 5.82875 27.745 5 28 C5 26.68 5 25.36 5 24 C5.66 24 6.32 24 7 24 C7.66 20.7 8.32 17.4 9 14 C8.34 14 7.68 14 7 14 C6.67 14.99 6.34 15.98 6 17 C5.505 16.01 5.505 16.01 5 15 C5.33 14.34 5.66 13.68 6 13 C5.22398437 13.28875 4.44796875 13.5775 3.6484375 13.875 C-7.34615376 17.65357074 -17.59140105 17.82537583 -29 16 C-28.34 19.3 -27.68 22.6 -27 26 C-31 24 -31 24 -32 22 C-32.125 18.4375 -32.125 18.4375 -32 15 C-31 14 -31 14 -27.40234375 13.90234375 C-25.91403133 13.9090178 -24.42573568 13.92097817 -22.9375 13.9375 C-21.79958008 13.94426758 -21.79958008 13.94426758 -20.63867188 13.95117188 C-18.75908129 13.9629932 -16.87953101 13.98092922 -15 14 C-15.72186723 9.87204078 -17.09215817 6.73273402 -19 3 C-19 2.34 -19 1.68 -19 1 C-14.78456242 2.50551342 -13.13950875 5.17944866 -11 9 C-11 10.32 -11 11.64 -11 13 C-8.525 13.495 -8.525 13.495 -6 14 C-6.433125 13.31292969 -6.86625 12.62585938 -7.3125 11.91796875 C-7.869375 11.01691406 -8.42625 10.11585938 -9 9.1875 C-9.556875 8.29417969 -10.11375 7.40085938 -10.6875 6.48046875 C-12 4 -12 4 -12 1 C-10 2 -8 3 -6 4 C-6 3.01 -6 2.02 -6 1 C-3 1 -3 1 -1.3125 2.5 C-0.879375 2.995 -0.44625 3.49 0 4 C0 2.68 0 1.36 0 0 Z " fill="#B1BAEA" transform="translate(130,138)"/>
<path d="M0 0 C0.3690205 11.52164009 0.3690205 11.52164009 -2 17 C-2.66 17 -3.32 17 -4 17 C-4.309375 17.86625 -4.309375 17.86625 -4.625 18.75 C-6.67534464 22.10510942 -8.42463044 23.30640389 -12 25 C-16.81415258 25.50751608 -21.09096305 25.22365591 -25.23046875 22.5703125 C-29.15919923 18.92509866 -30.37477676 16.39064431 -31 11 C-28.25032342 10.663795 -25.50031189 10.33093184 -22.75 10 C-21.97269531 9.90460938 -21.19539063 9.80921875 -20.39453125 9.7109375 C-19.26337891 9.57558594 -19.26337891 9.57558594 -18.109375 9.4375 C-17.41811523 9.35371094 -16.72685547 9.26992187 -16.01464844 9.18359375 C-14.01710903 9.00155914 -12.00581661 9 -10 9 C-9.773125 8.2575 -9.54625 7.515 -9.3125 6.75 C-7.29817262 2.52950454 -4.78175657 0 0 0 Z " fill="#7787D6" transform="translate(106,121)"/>
<path d="M0 0 C6.6 0 13.2 0 20 0 C20 6.6 20 13.2 20 20 C13.4 20 6.8 20 0 20 C0 13.4 0 6.8 0 0 Z " fill="#FEFEFE" transform="translate(200,200)"/>
<path d="M0 0 C6.6 0 13.2 0 20 0 C20 6.6 20 13.2 20 20 C13.4 20 6.8 20 0 20 C0 13.4 0 6.8 0 0 Z " fill="#FEFEFE" transform="translate(0,200)"/>
<path d="M0 0 C6.6 0 13.2 0 20 0 C20 6.6 20 13.2 20 20 C13.4 20 6.8 20 0 20 C0 13.4 0 6.8 0 0 Z " fill="#FEFEFE" transform="translate(0,40)"/>
<path d="M0 0 C6.6 0 13.2 0 20 0 C20 6.6 20 13.2 20 20 C13.4 20 6.8 20 0 20 C0 13.4 0 6.8 0 0 Z " fill="#FEFEFE" transform="translate(200,0)"/>
<path d="M0 0 C6.6 0 13.2 0 20 0 C20 6.6 20 13.2 20 20 C13.4 20 6.8 20 0 20 C0 13.4 0 6.8 0 0 Z " fill="#FEFEFE" transform="translate(40,0)"/>
<path d="M0 0 C6.6 0 13.2 0 20 0 C20 6.6 20 13.2 20 20 C13.4 20 6.8 20 0 20 C0 13.4 0 6.8 0 0 Z " fill="#FEFEFE" transform="translate(0,0)"/>
<path d="M0 0 C1.84431071 1.84431071 3.67845785 3.6954193 5.5 5.5625 C8.6793477 8.662364 10.21308549 9.9199748 14.6875 10.375 C19.43642359 10.28689381 22.98617531 8.39121471 27 6 C27.103125 6.94875 27.20625 7.8975 27.3125 8.875 C27.68539295 12.29107501 27.68539295 12.29107501 31 14 C31.39118106 18.2247555 31.42664296 21.45279715 29 25 C26.828125 25.90625 26.828125 25.90625 24.25 26.5 C19.74045927 27.6829375 16.69090358 29.18325779 13 32 C13.66 32.66 14.32 33.32 15 34 C12.525 34.495 12.525 34.495 10 35 C10.04543945 34.16021606 10.04543945 34.16021606 10.09179688 33.3034668 C10.22869184 30.76485502 10.36435938 28.22617909 10.5 25.6875 C10.54769531 24.80642578 10.59539062 23.92535156 10.64453125 23.01757812 C10.71220703 21.74624023 10.71220703 21.74624023 10.78125 20.44921875 C10.82314453 19.66893311 10.86503906 18.88864746 10.90820312 18.0847168 C10.98277524 16.39117604 11 14.69518179 11 13 C8.69 12.67 6.38 12.34 4 12 C4 11.01 4 10.02 4 9 C3.34 9 2.68 9 2 9 C0 3.375 0 3.375 0 0 Z " fill="#CDD3F0" transform="translate(133,135)"/>
<path d="M0 0 C0.66 0.99 1.32 1.98 2 3 C4.6556728 3.58348752 4.6556728 3.58348752 7.625 3.6875 C9.39875 3.790625 11.1725 3.89375 13 4 C13 10.6 13 17.2 13 24 C6.4 24 -0.2 24 -7 24 C-6.25274725 6.25274725 -6.25274725 6.25274725 0 0 Z " fill="#FCFDFD" transform="translate(227,136)"/>
<path d="M0 0 C0 0.99 0 1.98 0 3 C-0.7528125 3.1959375 -1.505625 3.391875 -2.28125 3.59375 C-15.17009272 7.22264746 -27.185599 13.06943927 -38 21 C-37.67 21.66 -37.34 22.32 -37 23 C-39.3125 23.625 -39.3125 23.625 -42 24 C-42.99 23.34 -43.98 22.68 -45 22 C-47.2477975 24.05233685 -48.0022242 25.00667261 -49 28 C-49.66 28 -50.32 28 -51 28 C-49.5338296 21.3355891 -47.18238272 17.18447487 -41.49609375 13.28125 C-28.68547505 5.50276515 -15.23126424 -0.67694508 0 0 Z " fill="#ECF0FA" transform="translate(95,48)"/>
<path d="M0 0 C0.66666667 1.33333333 1.33333333 2.66666667 2 4 C2.72896484 5.34771484 2.72896484 5.34771484 3.47265625 6.72265625 C5.04994136 10.10716317 5.87892934 13.16003319 6.625 16.8125 C7.00011719 18.64361328 7.00011719 18.64361328 7.3828125 20.51171875 C7.89342194 23.39763162 8.25813266 26.20807987 8.5 29.125 C8.65679711 32.88153238 8.65679711 32.88153238 10.46484375 34.921875 C12.29354253 37.39736546 12.61747588 39.09192296 13.0625 42.125 C13.21589844 43.16398437 13.36929688 44.20296875 13.52734375 45.2734375 C14.44464148 52.50568569 15.24271786 59.74942632 16 67 C17.485 66.505 17.485 66.505 19 66 C19.04898438 65.40832031 19.09796875 64.81664062 19.1484375 64.20703125 C19.56456867 59.80895528 20.04965595 56.03071103 22 52 C22.33 52 22.66 52 23 52 C21.46335669 66.62237422 15.86855776 79.18323713 9 92 C8.01 90.68 7.02 89.36 6 88 C4.02 88.495 4.02 88.495 2 89 C4.77830571 85.3984926 7.7405666 82.17134061 11 79 C12.80794366 77.19205634 12.13228231 74.72691657 12.13867188 72.32177734 C12.13416016 71.53496582 12.12964844 70.7481543 12.125 69.9375 C12.12209961 68.73794678 12.12209961 68.73794678 12.11914062 67.51416016 C12.06340033 59.65322961 11.5978431 51.83601494 11 44 C10.34 44 9.68 44 9 44 C8.82984375 43.030625 8.6596875 42.06125 8.484375 41.0625 C5.49196762 23.84538082 5.49196762 23.84538082 0.1875 7.25 C-1.0352451 3.90353972 -1.02137141 3.19612823 0 0 Z " fill="#808DC6" transform="translate(201,84)"/>
<path d="M0 0 C1.35015859 4.05047576 0.62084998 6.7920168 0 11 C-0.66 11 -1.32 11 -2 11 C-2.34649592 15.54157149 -2.62199438 20.08105971 -2.85351562 24.62988281 C-2.9986015 26.97737232 -3.22233763 29.30801685 -3.453125 31.6484375 C-4.0062629 38.83239201 -4.24320673 44.50344826 0.53100586 50.27075195 C7.35384726 57.43150373 14.70881296 61.84763297 24 65 C19.70272603 66.30660357 16.39784135 65.6596762 12 65 C12 64.34 12 63.68 12 63 C10.515 62.505 10.515 62.505 9 62 C9 63.98 9 65.96 9 68 C9.66 68 10.32 68 11 68 C11.33 69.65 11.66 71.3 12 73 C2.7164431 64.26253468 -4.60349017 53.33469358 -8 41 C-7.01 41.33 -6.02 41.66 -5 42 C-5.02356567 40.93471069 -5.02356567 40.93471069 -5.04760742 39.84790039 C-5.1105114 36.5861834 -5.14916537 33.32459463 -5.1875 30.0625 C-5.21263672 28.94552734 -5.23777344 27.82855469 -5.26367188 26.67773438 C-5.31669251 20.65105561 -4.99436727 15.58702243 -2.765625 9.95507812 C-1.50004195 6.72332142 -0.79733107 3.37332378 0 0 Z " fill="#7D8BCB" transform="translate(30,117)"/>
<path d="M0 0 C1.09054688 0.02320313 2.18109375 0.04640625 3.3046875 0.0703125 C4.40039062 0.08835938 5.49609375 0.10640625 6.625 0.125 C7.88957031 0.15980469 7.88957031 0.15980469 9.1796875 0.1953125 C9.22223106 2.19485996 9.22049533 4.19572886 9.1796875 6.1953125 C8.1796875 7.1953125 8.1796875 7.1953125 4.6171875 7.2578125 C3.4828125 7.2371875 2.3484375 7.2165625 1.1796875 7.1953125 C1.1796875 7.8553125 1.1796875 8.5153125 1.1796875 9.1953125 C4.37946492 9.34768285 6.78956817 9.3431388 9.80712891 8.19970703 C14.13322255 6.91133659 18.03006313 6.94513811 22.515625 7 C23.83465317 7.00424484 23.83465317 7.00424484 25.18032837 7.00857544 C27.97192344 7.01971538 30.7631904 7.04480839 33.5546875 7.0703125 C35.45442243 7.0803503 37.35416242 7.08947475 39.25390625 7.09765625 C43.89595857 7.11963444 48.53776752 7.1541214 53.1796875 7.1953125 C53.1796875 7.8553125 53.1796875 8.5153125 53.1796875 9.1953125 C52.18340332 9.17436523 51.18711914 9.15341797 50.16064453 9.13183594 C24.37944873 8.47625582 24.37944873 8.47625582 -0.8203125 13.1953125 C-3.06842797 13.64239535 -5.31837478 14.08039846 -7.5703125 14.5078125 C-13.94726743 15.94384434 -19.24154308 18.72704896 -24.921875 21.8671875 C-27.8203125 23.1953125 -27.8203125 23.1953125 -30.8203125 22.1953125 C-21.9546895 14.85285821 -12.38444685 10.5364419 -1.8203125 6.1953125 C-0.87542969 5.793125 0.06945312 5.3909375 1.04296875 4.9765625 C3.52930246 4.06748253 5.55288547 4.04520953 8.1796875 4.1953125 C8.1796875 3.2053125 8.1796875 2.2153125 8.1796875 1.1953125 C1.7446875 1.6903125 1.7446875 1.6903125 -4.8203125 2.1953125 C-2.8203125 0.1953125 -2.8203125 0.1953125 0 0 Z " fill="#8996CC" transform="translate(86.8203125,46.8046875)"/>
<path d="M0 0 C0.99 0 1.98 0 3 0 C4.4296875 1.6796875 4.4296875 1.6796875 5.875 3.875 C8.23813327 7.21883357 9.86643565 9.02739662 14 10 C14 10.66 14 11.32 14 12 C14.77085937 12.20496094 15.54171875 12.40992187 16.3359375 12.62109375 C17.33882812 12.89050781 18.34171875 13.15992187 19.375 13.4375 C20.37273437 13.70433594 21.37046875 13.97117187 22.3984375 14.24609375 C25 15 25 15 27 16 C27.061875 16.61875 27.12375 17.2375 27.1875 17.875 C27.8959257 20.45071525 27.8959257 20.45071525 31.5625 21.75 C32.696875 22.1625 33.83125 22.575 35 23 C35.71033431 28.52967941 36.30267176 33.49983036 35 39 C34.01 39.33 33.02 39.66 32 40 C32.2475 39.01 32.2475 39.01 32.5 38 C33.12183299 34.26900206 33.06408926 30.78126622 33 27 C32.34 30.96 31.68 34.92 31 39 C30.34 39 29.68 39 29 39 C28.67 38.01 28.34 37.02 28 36 C27.67 36.66 27.34 37.32 27 38 C24.69 38 22.38 38 20 38 C20 37.67 20 37.34 20 37 C21.65 37 23.3 37 25 37 C25.33 32.05 25.66 27.1 26 22 C25.34 21.67 24.68 21.34 24 21 C24 20.34 24 19.68 24 19 C23.10539062 18.68289062 22.21078125 18.36578125 21.2890625 18.0390625 C12.39528586 14.60670947 5.85741992 10.84138474 0 3 C0 2.01 0 1.02 0 0 Z " fill="#DCDFF3" transform="translate(138,90)"/>
<path d="M0 0 C0.33 0.66 0.66 1.32 1 2 C5.95 2 10.9 2 16 2 C15.34 2.33 14.68 2.66 14 3 C14.433125 3.77085937 14.86625 4.54171875 15.3125 5.3359375 C15.869375 6.33882812 16.42625 7.34171875 17 8.375 C17.556875 9.37273437 18.11375 10.37046875 18.6875 11.3984375 C20 14 20 14 20 16 C17.625 15.8125 17.625 15.8125 15 15 C13.9375 12.8125 13.9375 12.8125 13 10 C10.65232094 5.82189826 10.65232094 5.82189826 7 3 C7.41572266 3.77923828 7.41572266 3.77923828 7.83984375 4.57421875 C11.62352941 11.85882353 11.62352941 11.85882353 12 16 C11 17 11 17 7.9375 17.0625 C6.968125 17.041875 5.99875 17.02125 5 17 C5.66 15.35 6.32 13.7 7 12 C6.46375 11.731875 5.9275 11.46375 5.375 11.1875 C2.58333333 9.79166667 -0.20833333 8.39583333 -3 7 C-3 7.99 -3 8.98 -3 10 C-6.08888522 12.05925681 -6.70935927 12.2390374 -10.1875 12.125 C-12.0746875 12.063125 -12.0746875 12.063125 -14 12 C-14 12.66 -14 13.32 -14 14 C-14.66 14 -15.32 14 -16 14 C-16.33 13.01 -16.66 12.02 -17 11 C-17.66 10.34 -18.32 9.68 -19 9 C-18.41992188 9.04640625 -17.83984375 9.0928125 -17.2421875 9.140625 C-11.58769173 9.40188883 -8.47108042 8.81677597 -4 5 C-3.34 4.01 -2.68 3.02 -2 2 C-1.34 2 -0.68 2 0 2 C0 1.34 0 0.68 0 0 Z " fill="#B4BDF1" transform="translate(104,136)"/>
<path d="M0 0 C0 3.96 0 7.92 0 12 C-6.6 12 -13.2 12 -20 12 C-20 8.7 -20 5.4 -20 2 C-17.04181155 1.66533626 -14.08346412 1.33220993 -11.125 1 C-10.28324219 0.90460938 -9.44148437 0.80921875 -8.57421875 0.7109375 C-7.36572266 0.57558594 -7.36572266 0.57558594 -6.1328125 0.4375 C-5.38918457 0.35371094 -4.64555664 0.26992187 -3.87939453 0.18359375 C-2 0 -2 0 0 0 Z " fill="#EFEFF0" transform="translate(140,228)"/>
<path d="M0 0 C5.74842956 -0.28283496 10.49769238 0.70150557 16 2.3125 C17.15242188 2.63250977 17.15242188 2.63250977 18.328125 2.95898438 C23.06980843 4.30971903 27.51000516 5.9639784 32 8 C32 11.11227195 31.54372951 13.94152152 31 17 C27.51329166 15.8905928 24.22515763 14.73662334 21 13 C21 12.34 21 11.68 21 11 C20.35675781 10.90847656 19.71351563 10.81695312 19.05078125 10.72265625 C14.89708631 9.73874644 11.11113187 8.09838357 7.1875 6.4375 C6.39923828 6.10814453 5.61097656 5.77878906 4.79882812 5.43945312 C2.86416204 4.63041094 0.93184247 3.81576148 -1 3 C-0.67 2.01 -0.34 1.02 0 0 Z " fill="#EFF3FA" transform="translate(145,48)"/>
<path d="M0 0 C3.63 0 7.26 0 11 0 C11.10152799 6.7685324 11.03026944 13.30324864 10 20 C6.7 20 3.4 20 0 20 C0 13.4 0 6.8 0 0 Z " fill="#EFEFEE" transform="translate(0,100)"/>
<path d="M0 0 C2.97 0 5.94 0 9 0 C9 6.6 9 13.2 9 20 C5.04 20 1.08 20 -3 20 C-2.855625 18.906875 -2.71125 17.81375 -2.5625 16.6875 C-1.99275586 12.20979253 -1.62787027 7.72253017 -1.28125 3.22265625 C-1 1 -1 1 0 0 Z " fill="#EEEFEF" transform="translate(231,120)"/>
<path d="M0 0 C0.66 0 1.32 0 2 0 C-1.2416787 7.59148226 -9.32464062 11.38402394 -16.375 14.9375 C-16.98182617 15.24405518 -17.58865234 15.55061035 -18.21386719 15.86645508 C-21.01196433 17.2252292 -22.84750984 18 -26 18 C-26.33 18.66 -26.66 19.32 -27 20 C-27 19.34 -27 18.68 -27 18 C-30.96 18.495 -30.96 18.495 -35 19 C-34.67 19.99 -34.34 20.98 -34 22 C-35.4375 24.1875 -35.4375 24.1875 -37 26 C-37.99 25.67 -38.98 25.34 -40 25 C-39.34 24.67 -38.68 24.34 -38 24 C-37.31270746 21.88153715 -37.31270746 21.88153715 -36.875 19.4375 C-36.70742187 18.61121094 -36.53984375 17.78492188 -36.3671875 16.93359375 C-36.24601563 16.29550781 -36.12484375 15.65742188 -36 15 C-34.98421875 14.69707031 -33.9684375 14.39414063 -32.921875 14.08203125 C-18.37927128 10.46206144 -18.37927128 10.46206144 -6 3 C-4.34183216 2.31246699 -2.67540664 1.64438717 -1 1 C-0.67 0.67 -0.34 0.34 0 0 Z " fill="#828ECB" transform="translate(180,154)"/>
<path d="M0 0 C4.21543758 1.50551342 5.86049125 4.17944866 8 8 C8 9.32 8 10.64 8 12 C10.475 12.495 10.475 12.495 13 13 C12.566875 12.31292969 12.13375 11.62585938 11.6875 10.91796875 C11.130625 10.01691406 10.57375 9.11585938 10 8.1875 C9.443125 7.29417969 8.88625 6.40085938 8.3125 5.48046875 C7 3 7 3 7 0 C10 1 10 1 11.6875 3.9375 C13 7 13 7 13 9 C13.66 9 14.32 9 15 9 C15.33 9.99 15.66 10.98 16 12 C16.66 12.66 17.32 13.32 18 14 C9.11102509 17.41779734 -0.72670343 16.48372745 -10 15 C-9.34 18.3 -8.68 21.6 -8 25 C-12 23 -12 23 -13 21 C-13.125 17.4375 -13.125 17.4375 -13 14 C-12 13 -12 13 -8.40234375 12.90234375 C-6.91403133 12.9090178 -5.42573568 12.92097817 -3.9375 12.9375 C-2.79958008 12.94426758 -2.79958008 12.94426758 -1.63867188 12.95117188 C0.24091871 12.9629932 2.12046899 12.98092922 4 13 C3.27813277 8.87204078 1.90784183 5.73273402 0 2 C0 1.34 0 0.68 0 0 Z " fill="#ACB4E1" transform="translate(111,139)"/>
<path d="M0 0 C0.99 0 1.98 0 3 0 C3.33 5.61 3.66 11.22 4 17 C4.99 17 5.98 17 7 17 C7.04898438 16.21753906 7.09796875 15.43507813 7.1484375 14.62890625 C7.22320312 13.61699219 7.29796875 12.60507813 7.375 11.5625 C7.44460937 10.55316406 7.51421875 9.54382813 7.5859375 8.50390625 C7.72257812 7.67761719 7.85921875 6.85132812 8 6 C8.66 5.67 9.32 5.34 10 5 C10.27139364 23.09290954 10.27139364 23.09290954 7 28 C4.625 27.75 4.625 27.75 2 27 C-0.10402016 23.88009219 -0.236436 21.27924033 -0.1953125 17.578125 C-0.18564453 16.04091797 -0.18564453 16.04091797 -0.17578125 14.47265625 C-0.15902344 13.40917969 -0.14226563 12.34570312 -0.125 11.25 C-0.11597656 10.17105469 -0.10695312 9.09210938 -0.09765625 7.98046875 C-0.07411305 5.32008722 -0.04122799 2.66015664 0 0 Z " fill="#CFD2EE" transform="translate(60,87)"/>
<path d="M0 0 C3.3 0 6.6 0 10 0 C10 1.32 10 2.64 10 4 C10.61875 3.649375 11.2375 3.29875 11.875 2.9375 C16.37011449 1.58896565 20.40954987 2.34040134 25 3 C25.33 3.99 25.66 4.98 26 6 C27.2375 6.495 27.2375 6.495 28.5 7 C29.7375 7.495 29.7375 7.495 31 8 C31.33 8.99 31.66 9.98 32 11 C25.68367161 11.39204797 20.3474642 9.96644764 14.3125 8.1875 C13.37599609 7.92646484 12.43949219 7.66542969 11.47460938 7.39648438 C3.4328017 5.07176481 3.4328017 5.07176481 0 2 C0 1.34 0 0.68 0 0 Z " fill="#E1E7FA" transform="translate(76,160)"/>
<path d="M0 0 C1.485 0.99 1.485 0.99 3 2 C5.62531524 2.16713569 5.62531524 2.16713569 8 2 C8 1.34 8 0.68 8 0 C8.66 0 9.32 0 10 0 C9.71749338 2.58463502 9.4243774 5.16731135 9.125 7.75 C9.00705078 8.84441406 9.00705078 8.84441406 8.88671875 9.9609375 C8.44863824 13.66777257 8.0013785 16.80452172 6 20 C4.125 19.6875 4.125 19.6875 2 19 C-0.52775351 15.20836973 -0.22443035 12.19125969 -0.125 7.8125 C-0.11597656 7.06291016 -0.10695313 6.31332031 -0.09765625 5.54101562 C-0.07412578 3.69387346 -0.03825561 1.84689588 0 0 Z " fill="#D0D6F5" transform="translate(118,80)"/>
<path d="M0 0 C1.21816406 0.03480469 1.21816406 0.03480469 2.4609375 0.0703125 C3.68683594 0.09738281 3.68683594 0.09738281 4.9375 0.125 C5.87722656 0.15980469 5.87722656 0.15980469 6.8359375 0.1953125 C3.73407419 2.26322137 1.20393625 3.12824605 -2.3515625 4.1953125 C-3.43824219 4.5253125 -4.52492187 4.8553125 -5.64453125 5.1953125 C-6.80597656 5.5253125 -7.96742188 5.8553125 -9.1640625 6.1953125 C-10.329375 6.56140625 -11.4946875 6.9275 -12.6953125 7.3046875 C-18.84496295 8.81054357 -25.1869968 8.48372206 -31.4765625 8.4453125 C-32.73146484 8.45304688 -33.98636719 8.46078125 -35.27929688 8.46875 C-42.79203413 8.45309031 -49.83287259 7.85834951 -57.1640625 6.1953125 C-55.8440625 5.5353125 -54.5240625 4.8753125 -53.1640625 4.1953125 C-52.8340625 4.8553125 -52.5040625 5.5153125 -52.1640625 6.1953125 C-47.66133547 6.10173551 -43.1591435 5.99563325 -38.65698242 5.87792969 C-37.12548911 5.83965452 -35.59390635 5.80479901 -34.06225586 5.7734375 C-31.8601892 5.72775443 -29.65873754 5.66976713 -27.45703125 5.609375 C-26.77255417 5.59782379 -26.08807709 5.58627258 -25.38285828 5.57437134 C-21.77945413 5.46257506 -20.2481442 5.25136697 -17.1640625 3.1953125 C-13.65553916 2.53332696 -10.42299884 2.19042691 -6.8515625 2.2578125 C-3.43885036 2.1784471 -3.21979097 0.29059485 0 0 Z " fill="#818FC8" transform="translate(153.1640625,216.8046875)"/>
<path d="M0 0 C2 3 2 3 2 5 C1.34 5 0.68 5 0 5 C0 5.99 0 6.98 0 8 C-0.66 8 -1.32 8 -2 8 C-1.97679687 8.91523437 -1.95359375 9.83046875 -1.9296875 10.7734375 C-1.91164063 11.96195313 -1.89359375 13.15046875 -1.875 14.375 C-1.85179687 15.55835937 -1.82859375 16.74171875 -1.8046875 17.9609375 C-2 21 -2 21 -4 23 C-4.47155728 27.7092854 -4.33608065 32.45692885 -4.3125 37.1875 C-4.31167419 37.87029022 -4.31084839 38.55308044 -4.30999756 39.25656128 C-4.28534559 55.35845542 -4.28534559 55.35845542 0.2265625 70.68359375 C0.48179688 71.44800781 0.73703125 72.21242188 1 73 C0.34 73.99 -0.32 74.98 -1 76 C-8.61461963 51.67757418 -11.22397242 23.70138339 0 0 Z " fill="#8692C7" transform="translate(22,82)"/>
<path d="M0 0 C2.31 0.33 4.62 0.66 7 1 C9.52719362 9.77084844 9.52719362 9.77084844 8 14 C6.4375 16.3125 6.4375 16.3125 5 18 C6.32 18.33 7.64 18.66 9 19 C6.48425692 20.01475351 3.96365897 21.01179332 1.4375 22 C0.73302734 22.28617188 0.02855469 22.57234375 -0.69726562 22.8671875 C-5.36471116 24.67394061 -8.99732473 25.31554325 -14 25 C-9.43539506 20.20716481 -5.51938277 18.41179547 0.85546875 16.84375 C1.56316406 16.5653125 2.27085937 16.286875 3 16 C4.180933 12.457201 4.27028374 9.71640139 4 6 C3.01 5.34 2.02 4.68 1 4 C0.3125 1.875 0.3125 1.875 0 0 Z " fill="#E3E7F9" transform="translate(159,143)"/>
<path d="M0 0 C3.12051413 0.90508418 6.03322417 2.06781036 9.01953125 3.34765625 C10.08816406 3.80269531 11.15679687 4.25773437 12.2578125 4.7265625 C13.47017578 5.25056641 13.47017578 5.25056641 14.70703125 5.78515625 C14.70703125 6.44515625 14.70703125 7.10515625 14.70703125 7.78515625 C15.49078125 7.99140625 16.27453125 8.19765625 17.08203125 8.41015625 C21.95438427 10.25829015 26.4862977 12.71553185 30.70703125 15.78515625 C30.70703125 16.44515625 30.70703125 17.10515625 30.70703125 17.78515625 C27.87966177 16.69398514 25.13392224 15.51748063 22.38671875 14.234375 C12.09473228 9.43280936 1.74648773 6.38902805 -9.29296875 3.78515625 C-8.39578125 3.35203125 -8.39578125 3.35203125 -7.48046875 2.91015625 C-1.54106738 -0.14439303 -1.54106738 -0.14439303 0 0 Z " fill="#8490C9" transform="translate(151.29296875,53.21484375)"/>
<path d="M0 0 C1.84431071 1.84431071 3.67845785 3.6954193 5.5 5.5625 C8.797939 8.77799052 10.20404844 9.94864829 14.875 10.25 C18.28982837 10.17439494 20.91249145 9.54375427 24 8 C24 9.32 24 10.64 24 12 C21 14 21 14 18 14 C17.773125 14.886875 17.54625 15.77375 17.3125 16.6875 C15.82811487 20.43380532 13.97596515 22.33729434 11 25 C11 21 11 17 11 13 C8.69 12.67 6.38 12.34 4 12 C4 11.01 4 10.02 4 9 C3.34 9 2.68 9 2 9 C0 3.375 0 3.375 0 0 Z " fill="#C7D2FA" transform="translate(133,135)"/>
<path d="M0 0 C1.98 0.66 3.96 1.32 6 2 C6 2.66 6 3.32 6 4 C6.83789062 4.27585938 7.67578125 4.55171875 8.5390625 4.8359375 C12.1673275 6.05627945 15.77158635 7.3332102 19.375 8.625 C20.01566406 8.85445312 20.65632813 9.08390625 21.31640625 9.3203125 C22.87781405 9.87962276 24.43893701 10.43972808 26 11 C25.34 12.32 24.68 13.64 24 15 C24.66 15.33 25.32 15.66 26 16 C25.67 18.31 25.34 20.62 25 23 C24.01 23 23.02 23 22 23 C23.5 20 23.5 20 25 17 C24.01 17 23.02 17 22 17 C22 16.34 22 15.68 22 15 C20.576875 14.9690625 20.576875 14.9690625 19.125 14.9375 C11.68454719 13.89402186 4.76170737 7.55532527 0 2 C0 1.34 0 0.68 0 0 Z " fill="#8792CC" transform="translate(60,155)"/>
<path d="M0 0 C0.33 0.66 0.66 1.32 1 2 C0.01 3.485 0.01 3.485 -1 5 C-1.99 5 -2.98 5 -4 5 C-4 5.66 -4 6.32 -4 7 C-4.66 7 -5.32 7 -6 7 C-6 7.99 -6 8.98 -6 10 C-7.2375 10.9590625 -7.2375 10.9590625 -8.5 11.9375 C-9.325 12.618125 -10.15 13.29875 -11 14 C-11 15.32 -11 16.64 -11 18 C-12.7634375 18.3403125 -12.7634375 18.3403125 -14.5625 18.6875 C-19.24122399 19.83007609 -22.24893562 22.03040737 -26 25 C-26 21.36632832 -24.89862749 20.48907004 -22.44238281 17.97558594 C-21.92514648 17.46801758 -21.40791016 16.96044922 -20.875 16.4375 C-20.08367676 15.65101074 -20.08367676 15.65101074 -19.27636719 14.84863281 C-13.38483319 9.15634603 -6.7939972 4.54273186 0 0 Z " fill="#7785D2" transform="translate(65,30)"/>
<path d="M0 0 C1.35015859 4.05047576 0.62084998 6.7920168 0 11 C-0.66 11 -1.32 11 -2 11 C-2.65090251 19.53147217 -3.14220588 28.06949444 -3.3125 36.625 C-3.34214844 37.36991699 -3.37179688 38.11483398 -3.40234375 38.88232422 C-3.45985955 44.17497594 -2.03582696 46.78323017 1 51 C0.33333333 53 -0.33333333 55 -1 57 C-2.19725883 54.71296692 -3.38297018 52.42115138 -4.5625 50.125 C-4.90474609 49.47402344 -5.24699219 48.82304687 -5.59960938 48.15234375 C-6.46082891 46.46470143 -7.23686703 44.73420407 -8 43 C-7.67 42.34 -7.34 41.68 -7 41 C-6.34 41.33 -5.68 41.66 -5 42 C-5.02356567 40.93471069 -5.02356567 40.93471069 -5.04760742 39.84790039 C-5.1105114 36.5861834 -5.14916537 33.32459463 -5.1875 30.0625 C-5.21263672 28.94552734 -5.23777344 27.82855469 -5.26367188 26.67773438 C-5.31669251 20.65105561 -4.99436727 15.58702243 -2.765625 9.95507812 C-1.50004195 6.72332142 -0.79733107 3.37332378 0 0 Z " fill="#8A95C7" transform="translate(30,117)"/>
<path d="M0 0 C2.56616632 3.84924948 2.55097676 6.4349304 3 11 C3.33 8.69 3.66 6.38 4 4 C5.32 3.67 6.64 3.34 8 3 C8 4.65 8 6.3 8 8 C8.66 8 9.32 8 10 8 C10.66 6.68 11.32 5.36 12 4 C12 5.98 12 7.96 12 10 C10.35 10.33 8.7 10.66 7 11 C6.67 10.34 6.34 9.68 6 9 C5.67 12.96 5.34 16.92 5 21 C3.35 21 1.7 21 0 21 C0 14.07 0 7.14 0 0 Z " fill="#AFBAE2" transform="translate(114,181)"/>
<path d="M0 0 C-2.35260225 1.5684015 -4.25466382 2.60665527 -6.8125 3.6875 C-11.00720119 5.52655619 -15.14018519 7.47933656 -19.25 9.5 C-20.41015625 10.0671875 -21.5703125 10.634375 -22.765625 11.21875 C-27.39324654 13.76729519 -30.99237208 16.09211574 -33.1875 21 C-33.49042969 21.66 -33.79335938 22.32 -34.10546875 23 C-34.54826172 23.99 -34.54826172 23.99 -35 25 C-35.66109375 26.33610526 -36.32621917 27.67024753 -37 29 C-36.96586729 21.62733531 -34.98541985 17.37161434 -30 12 C-29.53335938 11.48050781 -29.06671875 10.96101563 -28.5859375 10.42578125 C-24.52142647 6.46345067 -20.40121643 6.13202974 -15 6 C-15 5.34 -15 4.68 -15 4 C-5.77448747 -0.59225513 -5.77448747 -0.59225513 0 0 Z " fill="#8190C7" transform="translate(80,49)"/>
<path d="M0 0 C0.33 0 0.66 0 1 0 C1.19789024 3.22861733 1.38146345 6.45789727 1.5625 9.6875 C1.61857422 10.59951172 1.67464844 11.51152344 1.73242188 12.45117188 C1.78076172 13.33740234 1.82910156 14.22363281 1.87890625 15.13671875 C1.94960327 16.35427856 1.94960327 16.35427856 2.02172852 17.59643555 C1.99833944 20.18368832 1.56393222 22.47990309 1 25 C0.47408499 30.34006014 0.92558228 33.45520859 4 38 C3.67 38.66 3.34 39.32 3 40 C-0.19274015 36.80221603 -2.30090858 34.6508528 -2.55859375 30.0390625 C-2.54659762 28.56720365 -2.5049274 27.09536252 -2.4375 25.625 C-2.41139648 24.45928467 -2.41139648 24.45928467 -2.38476562 23.27001953 C-2.13771646 15.45154678 -1.17891953 7.72613337 0 0 Z " fill="#DDE2F8" transform="translate(28,128)"/>
<path d="M0 0 C1 2 1 2 1 4.25 C-0.4971725 8.36722438 -3.58064172 10.40200193 -7 13 C-7.66 12.34 -8.32 11.68 -9 11 C-11.31963635 10.56506818 -13.65729013 10.22313778 -16 9.9375 C-22.8147139 9.09264305 -22.8147139 9.09264305 -25 8 C-25 7.01 -25 6.02 -25 5 C-24.07380859 5.2165625 -24.07380859 5.2165625 -23.12890625 5.4375 C-14.60158939 7.54046346 -14.60158939 7.54046346 -6 7 C-3.52958012 4.95744665 -1.74256577 2.67876778 0 0 Z " fill="#808CCC" transform="translate(81,178)"/>
<path d="M0 0 C0.99 0 1.98 0 3 0 C4.4296875 1.6796875 4.4296875 1.6796875 5.875 3.875 C8.23813327 7.21883357 9.86643565 9.02739662 14 10 C14 10.66 14 11.32 14 12 C14.77085937 12.20496094 15.54171875 12.40992187 16.3359375 12.62109375 C17.33882812 12.89050781 18.34171875 13.15992187 19.375 13.4375 C20.37273437 13.70433594 21.37046875 13.97117187 22.3984375 14.24609375 C25 15 25 15 27 16 C27 16.66 27 17.32 27 18 C18.88678803 18.46876336 12.37940009 14.79477813 6.22265625 9.703125 C3.98785936 7.54246829 1.87222604 5.48211786 0 3 C0 2.01 0 1.02 0 0 Z " fill="#989CBC" transform="translate(138,90)"/>
<path d="M0 0 C0.99 0.33 1.98 0.66 3 1 C-3.95177203 8.82578593 -11.11549106 16.10677361 -19 23 C-19.66 22.34 -20.32 21.68 -21 21 C-20.360625 20.401875 -19.72125 19.80375 -19.0625 19.1875 C-16.79689611 17.09189663 -16.79689611 17.09189663 -16 14 C-15.34 14 -14.68 14 -14 14 C-13.67 13.01 -13.34 12.02 -13 11 C-11.6078125 10.319375 -11.6078125 10.319375 -10.1875 9.625 C-6.6906933 7.84231423 -5.27615644 6.13952613 -3 3 C-2.01769502 1.9826127 -1.02530403 0.97403883 0 0 Z " fill="#7B89CA" transform="translate(202,182)"/>
<path d="M0 0 C0.33 0.66 0.66 1.32 1 2 C0.34 2 -0.32 2 -1 2 C-1 3.98 -1 5.96 -1 8 C-4.71599906 10.34145859 -8.17862965 10.36259409 -12.5 10.5625 C-18.32748383 10.79066044 -18.32748383 10.79066044 -24 12 C-24.33 10.68 -24.66 9.36 -25 8 C-22.25032342 7.663795 -19.50031189 7.33093184 -16.75 7 C-15.97269531 6.90460938 -15.19539063 6.80921875 -14.39453125 6.7109375 C-13.64042969 6.62070313 -12.88632813 6.53046875 -12.109375 6.4375 C-11.07248535 6.31181641 -11.07248535 6.31181641 -10.01464844 6.18359375 C-8.01710903 6.00155914 -6.00581661 6 -4 6 C-3.71125 5.195625 -3.4225 4.39125 -3.125 3.5625 C-2 1 -2 1 0 0 Z " fill="#7B8CC6" transform="translate(100,124)"/>
<path d="M0 0 C2.19619434 2.19619434 2.49671764 3.20307521 3.25390625 6.140625 C3.46853516 6.96433594 3.68316406 7.78804688 3.90429688 8.63671875 C4.12150391 9.49910156 4.33871094 10.36148438 4.5625 11.25 C4.78357422 12.09691406 5.00464844 12.94382812 5.23242188 13.81640625 C6.91241811 20.34352152 8.1311932 26.49897376 8.09765625 33.2734375 C8.09443359 34.42714844 8.09121094 35.58085938 8.08789062 36.76953125 C8.07951172 37.95933594 8.07113281 39.14914063 8.0625 40.375 C8.05798828 41.58800781 8.05347656 42.80101562 8.04882812 44.05078125 C8.03708354 47.03390507 8.0206584 50.01692679 8 53 C7.67 53 7.34 53 7 53 C6.98018066 52.41621582 6.96036133 51.83243164 6.93994141 51.23095703 C6.84337139 48.52859732 6.73424027 45.82687606 6.625 43.125 C6.5940625 42.2071875 6.563125 41.289375 6.53125 40.34375 C6.26535248 34.05084195 5.37887014 28.13866162 4 22 C3.6653395 20.33359932 3.33183287 18.66696606 3 17 C2.66950815 15.56184406 2.33622275 14.12432693 2 12.6875 C1.05192584 8.47069256 0.46856758 4.29520285 0 0 Z " fill="#8591C5" transform="translate(217,80)"/>
<path d="M0 0 C0.66666667 1.33333333 1.33333333 2.66666667 2 4 C2.72896484 5.34771484 2.72896484 5.34771484 3.47265625 6.72265625 C7.25741178 14.84390916 8.11589176 24.15891755 9 33 C9.33 33.66 9.66 34.32 10 35 C10.06950541 36.54023996 10.08452357 38.08334988 10.0625 39.625 C10.05347656 40.44226563 10.04445312 41.25953125 10.03515625 42.1015625 C10.02355469 42.72804687 10.01195312 43.35453125 10 44 C9.67 44 9.34 44 9 44 C8.82984375 43.030625 8.6596875 42.06125 8.484375 41.0625 C5.49196762 23.84538082 5.49196762 23.84538082 0.1875 7.25 C-1.0352451 3.90353972 -1.02137141 3.19612823 0 0 Z " fill="#8692C9" transform="translate(201,84)"/>
<path d="M0 0 C2.31 0.33 4.62 0.66 7 1 C6.68917128 2.75029762 6.37626821 4.50022694 6.0625 6.25 C5.88847656 7.22453125 5.71445313 8.1990625 5.53515625 9.203125 C5.09620271 11.49721795 4.59651408 13.74291971 4 16 C2.68 16.33 1.36 16.66 0 17 C0 11.39 0 5.78 0 0 Z " fill="#E3E4FA" transform="translate(63,88)"/>
<path d="M0 0 C0.66 0 1.32 0 2 0 C1.125 7.75 1.125 7.75 0 10 C-0.66 10 -1.32 10 -2 10 C-2 8.35 -2 6.7 -2 5 C-3.03125 5.33 -4.0625 5.66 -5.125 6 C-8.73109421 7.15395015 -10.85406376 7 -15 7 C-15 11.29 -15 15.58 -15 20 C-15.66 20 -16.32 20 -17 20 C-17 15.71 -17 11.42 -17 7 C-18.65 7 -20.3 7 -22 7 C-22 6.67 -22 6.34 -22 6 C-21.31035156 5.96261719 -20.62070313 5.92523438 -19.91015625 5.88671875 C-9.08627726 5.23912942 -9.08627726 5.23912942 0 0 Z " fill="#C2C3CE" transform="translate(137,152)"/>
<path d="M0 0 C1.70840281 1.63412443 2.93453047 2.86906094 4 5 C3.37915039 6.69580078 3.37915039 6.69580078 2.34765625 8.6953125 C1.98349609 9.41074219 1.61933594 10.12617188 1.24414062 10.86328125 C0.85419922 11.60964844 0.46425781 12.35601562 0.0625 13.125 C-0.32357422 13.87910156 -0.70964844 14.63320312 -1.10742188 15.41015625 C-2.06452132 17.27709097 -3.03136106 19.13902628 -4 21 C-4.99 19.68 -5.98 18.36 -7 17 C-8.32 17.33 -9.64 17.66 -11 18 C-8.22169429 14.3984926 -5.2594334 11.17134061 -2 8 C-0.03177114 6.03177114 -0.33751619 2.65191291 0 0 Z " fill="#8B93CB" transform="translate(214,155)"/>
<path d="M0 0 C1.98 0 3.96 0 6 0 C7.20272819 2.40545638 7.10071472 3.94996953 7.0625 6.625 C7.05347656 7.44226563 7.04445312 8.25953125 7.03515625 9.1015625 C7.02355469 9.72804687 7.01195312 10.35453125 7 11 C6.01 11 5.02 11 4 11 C3.938125 11.61875 3.87625 12.2375 3.8125 12.875 C3 15 3 15 0.4375 16.25 C-0.366875 16.4975 -1.17125 16.745 -2 17 C-2 15.68 -2 14.36 -2 13 C-1.34 13 -0.68 13 0 13 C0.66 9.04 1.32 5.08 2 1 C1.34 0.67 0.68 0.34 0 0 Z " fill="#818ECB" transform="translate(137,149)"/>
<path d="M0 0 C0.99 0 1.98 0 3 0 C2.35494404 3.48330216 1.01782732 6.09432866 -1 9 C-1.66 9 -2.32 9 -3 9 C-3.33 9.99 -3.66 10.98 -4 12 C-6.27286119 13.52008491 -8.48986529 14.8711532 -10.875 16.1875 C-11.51308594 16.55552734 -12.15117188 16.92355469 -12.80859375 17.30273438 C-17.60262059 20 -17.60262059 20 -21 20 C-21 19.01 -21 18.02 -21 17 C-20.01 16.608125 -19.02 16.21625 -18 15.8125 C-10.28998448 12.4325538 -5.56809071 9.24710488 -1.32421875 1.79296875 C-0.88722656 1.20128906 -0.45023438 0.60960938 0 0 Z " fill="#979DBA" transform="translate(100,85)"/>
<path d="M0 0 C1 3 1 3 0.0625 5.1875 C-0.288125 5.785625 -0.63875 6.38375 -1 7 C-1.66 7 -2.32 7 -3 7 C-3 9.97 -3 12.94 -3 16 C-7 16 -11 16 -15 16 C-14.08476562 15.09636719 -13.16953125 14.19273437 -12.2265625 13.26171875 C-11.02590942 12.07044577 -9.82539585 10.87903217 -8.625 9.6875 C-8.02171875 9.09259766 -7.4184375 8.49769531 -6.796875 7.88476562 C-6.21679688 7.30791016 -5.63671875 6.73105469 -5.0390625 6.13671875 C-4.50490723 5.60780029 -3.97075195 5.07888184 -3.42041016 4.53393555 C-1.78498535 2.8489902 -1.78498535 2.8489902 0 0 Z " fill="#F6F7FD" transform="translate(203,184)"/>
<path d="M0 0 C0 1.98 0 3.96 0 6 C-0.56589844 6.18175781 -1.13179687 6.36351563 -1.71484375 6.55078125 C-2.81505859 6.92783203 -2.81505859 6.92783203 -3.9375 7.3125 C-4.66839844 7.55613281 -5.39929688 7.79976563 -6.15234375 8.05078125 C-8.35932024 8.91240441 -8.35932024 8.91240441 -9 12 C-9.66 12 -10.32 12 -11 12 C-11.33 15.63 -11.66 19.26 -12 23 C-12.33 23 -12.66 23 -13 23 C-13.35464097 15.61821396 -13.50508951 10.25127103 -8.60546875 4.30859375 C-4.65675754 0 -4.65675754 0 0 0 Z " fill="#7E8AC2" transform="translate(145,110)"/>
<path d="M0 0 C0 0.33 0 0.66 0 1 C-1.21816406 1.04898437 -2.43632813 1.09796875 -3.69140625 1.1484375 C-5.31512437 1.22352273 -6.93882126 1.29906802 -8.5625 1.375 C-9.76229492 1.42140625 -9.76229492 1.42140625 -10.98632812 1.46875 C-17.28642093 1.77732597 -22.6362541 2.4241694 -28 6 C-29.90112305 6.22705078 -29.90112305 6.22705078 -32.01171875 6.1953125 C-33.14770508 6.18564453 -33.14770508 6.18564453 -34.30664062 6.17578125 C-35.09232422 6.15902344 -35.87800781 6.14226563 -36.6875 6.125 C-37.48478516 6.11597656 -38.28207031 6.10695313 -39.10351562 6.09765625 C-41.069139 6.07411585 -43.03460775 6.03824547 -45 6 C-32.87185728 -2.08542848 -13.90059046 -0.51838117 0 0 Z " fill="#8B95C8" transform="translate(130,15)"/>
<path d="M0 0 C1.65 0 3.3 0 5 0 C9.60244648 8.62691131 9.60244648 8.62691131 10 13 C9 14 9 14 5.9375 14.0625 C4.968125 14.041875 3.99875 14.02125 3 14 C3.66 12.35 4.32 10.7 5 9 C4.01 8.67 3.02 8.34 2 8 C0.5522078 5.10441559 0 3.25811062 0 0 Z " fill="#AFBBF1" transform="translate(106,139)"/>
<path d="M0 0 C0.33 0 0.66 0 1 0 C1.02696365 1.79158489 1.04637917 3.58328473 1.0625 5.375 C1.07410156 6.37273437 1.08570312 7.37046875 1.09765625 8.3984375 C1 11 1 11 0 13 C1.06927734 12.98259766 1.06927734 12.98259766 2.16015625 12.96484375 C6.48458045 12.9241022 10.58653044 12.93998022 14.875 13.5625 C17.94049126 13.99166878 20.03715888 13.80804758 23 13 C22.67 13.99 22.34 14.98 22 16 C22.66 16 23.32 16 24 16 C24 16.99 24 17.98 24 19 C23.01 18.67 22.02 18.34 21 18 C21 17.34 21 16.68 21 16 C20.01 16 19.02 16 18 16 C18 16.99 18 17.98 18 19 C16.68 18.34 15.36 17.68 14 17 C14 16.34 14 15.68 14 15 C9.05 15 4.1 15 -1 15 C-0.67 10.05 -0.34 5.1 0 0 Z " fill="#DCE3F8" transform="translate(106,123)"/>
<path d="M0 0 C2.97 0 5.94 0 9 0 C9 0.33 9 0.66 9 1 C6.36 1 3.72 1 1 1 C2.51865214 5.29888613 2.51865214 5.29888613 5 9 C5.5 11.125 5.5 11.125 5 14 C3.4375 15.60546875 3.4375 15.60546875 1.5 17.3125 C-1.26358092 19.80951348 -1.26358092 19.80951348 -2.46484375 23.2265625 C-2.47502131 25.66989495 -2.47502131 25.66989495 -2 29 C-3.98 28.67 -5.96 28.34 -8 28 C-6.68 27.67 -5.36 27.34 -4 27 C-4.103125 25.80375 -4.20625 24.6075 -4.3125 23.375 C-4.33070512 19.95850513 -3.81131276 18.19761597 -1.625 15.5625 C1 13 1 13 3 12 C2.690625 11.505 2.38125 11.01 2.0625 10.5 C0.58355618 7.02013219 0.37597149 3.75971491 0 0 Z " fill="#CFD5EC" transform="translate(74,131)"/>
<path d="M0 0 C-1 3 -1 3 -2.6796875 4.16796875 C-8.77058523 6.99665969 -14.30455751 7.90678434 -21 7 C-23.32421875 5.9765625 -23.32421875 5.9765625 -25 5 C-24.23816406 4.89042969 -23.47632812 4.78085938 -22.69140625 4.66796875 C-16.87041161 3.77410815 -11.44486057 2.69292014 -5.9375 0.5859375 C-4 0 -4 0 0 0 Z " fill="#E4E6F9" transform="translate(136,151)"/>
<path d="M0 0 C3.96 0 7.92 0 12 0 C11.01 0.495 11.01 0.495 10 1 C10 1.66 10 2.32 10 3 C8.0085944 3.38133299 6.00720923 3.71325582 4 4 C3.67 3.67 3.34 3.34 3 3 C3 8.28 3 13.56 3 19 C0 17 0 17 -0.6875 15.375 C-1.40350419 9.93336815 -1.07077528 5.35387639 0 0 Z " fill="#DBDEF6" transform="translate(116,79)"/>
<path d="M0 0 C7.49798916 5.90267232 14.70198597 13.38964522 19 22 C18.67 22.99 18.34 23.98 18 25 C17.34 25 16.68 25 16 25 C15.67 22.69 15.34 20.38 15 18 C14.34 18 13.68 18 13 18 C11.28891311 16.37897032 9.62746694 14.70496537 8 13 C7.2575 12.319375 6.515 11.63875 5.75 10.9375 C3.87338464 8.85981871 3.63786345 7.64257715 3 5 C2.01 4.67 1.02 4.34 0 4 C0 2.68 0 1.36 0 0 Z " fill="#808DC6" transform="translate(192,44)"/>
<path d="M0 0 C6.27 0.33 12.54 0.66 19 1 C19 1.33 19 1.66 19 2 C17.35 2.33 15.7 2.66 14 3 C14 3.66 14 4.32 14 5 C9.545 4.01 9.545 4.01 5 3 C4.67 5.31 4.34 7.62 4 10 C3.01 9.34 2.02 8.68 1 8 C0.67 5.36 0.34 2.72 0 0 Z " fill="#C4C8E4" transform="translate(101,154)"/>
<path d="M0 0 C0.33 0 0.66 0 1 0 C1.02505615 0.58491211 1.0501123 1.16982422 1.07592773 1.77246094 C1.19222962 4.43184471 1.31480067 7.09090403 1.4375 9.75 C1.47681641 10.67039062 1.51613281 11.59078125 1.55664062 12.5390625 C1.59853516 13.42851563 1.64042969 14.31796875 1.68359375 15.234375 C1.72025146 16.05131836 1.75690918 16.86826172 1.79467773 17.70996094 C1.99134275 19.9034423 2.40300594 21.88396413 3 24 C3.66 24 4.32 24 5 24 C5.99 17.4 6.98 10.8 8 4 C8.33 4 8.66 4 9 4 C9.27139364 22.09290954 9.27139364 22.09290954 6 27 C3.5625 26.625 3.5625 26.625 1 26 C-0.30475618 23.39048764 -0.11301572 21.47298715 -0.09765625 18.5546875 C-0.09443359 17.47832031 -0.09121094 16.40195313 -0.08789062 15.29296875 C-0.07951172 14.16503906 -0.07113281 13.03710938 -0.0625 11.875 C-0.05798828 10.73933594 -0.05347656 9.60367188 -0.04882812 8.43359375 C-0.03701615 5.62234362 -0.02054507 2.8111977 0 0 Z " fill="#ACADC9" transform="translate(61,88)"/>
<path d="M0 0 C0.33 0 0.66 0 1 0 C1.13277344 0.97582031 1.26554687 1.95164062 1.40234375 2.95703125 C1.57894531 4.22933594 1.75554687 5.50164062 1.9375 6.8125 C2.11152344 8.07707031 2.28554687 9.34164062 2.46484375 10.64453125 C2.90392455 13.98321703 2.90392455 13.98321703 4 17 C6.09570426 11.30601106 7.45018084 6.04801071 8 0 C8.66 0 9.32 0 10 0 C9.71749338 2.58463502 9.4243774 5.16731135 9.125 7.75 C9.00705078 8.84441406 9.00705078 8.84441406 8.88671875 9.9609375 C8.44863824 13.66777257 8.0013785 16.80452172 6 20 C4.125 19.6875 4.125 19.6875 2 19 C-0.52775351 15.20836973 -0.22443035 12.19125969 -0.125 7.8125 C-0.11597656 7.06291016 -0.10695313 6.31332031 -0.09765625 5.54101562 C-0.07412578 3.69387346 -0.03825561 1.84689588 0 0 Z " fill="#ACB0CD" transform="translate(118,80)"/>
<path d="M0 0 C0.66 0 1.32 0 2 0 C-0.1761764 5.16555555 -4.15104452 8.34114327 -9 11 C-12.07477484 11.29380056 -13.96800283 10.82690832 -17 10 C-17.33 10.66 -17.66 11.32 -18 12 C-18.66 11.34 -19.32 10.68 -20 10 C-19.15695313 9.66226563 -18.31390625 9.32453125 -17.4453125 8.9765625 C-15.80175781 8.30753906 -15.80175781 8.30753906 -14.125 7.625 C-13.03445312 7.18414062 -11.94390625 6.74328125 -10.8203125 6.2890625 C-7.93670638 5.16948662 -7.93670638 5.16948662 -6 3 C-4.34183216 2.31246699 -2.67540664 1.64438717 -1 1 C-0.67 0.67 -0.34 0.34 0 0 Z " fill="#8D97C4" transform="translate(180,154)"/>
<path d="M0 0 C0.66 0.33 1.32 0.66 2 1 C-1.32307692 6.78461538 -1.32307692 6.78461538 -4.75 7.875 C-5.4925 7.91625 -6.235 7.9575 -7 8 C-7 8.66 -7 9.32 -7 10 C-11.0527516 10.98248524 -14.83861737 11.08159574 -19 11 C-16.40637814 8.74467665 -13.75626435 7.39843572 -10.625 6.0625 C-6.73183784 4.3958405 -3.43554781 2.46654715 0 0 Z " fill="#8C99CD" transform="translate(201,173)"/>
<path d="M0 0 C0.66 0.33 1.32 0.66 2 1 C3.66194453 1.35613097 5.328451 1.69208308 7 2 C4.71689838 4.28310162 3.5149066 4.52749644 0.4375 5.3125 C-4.22679075 6.61714944 -8.00648926 8.53041427 -12.08984375 11.109375 C-14 12 -14 12 -17 11 C-15.29592618 9.72346071 -13.58652649 8.4540296 -11.875 7.1875 C-10.92367187 6.47980469 -9.97234375 5.77210937 -8.9921875 5.04296875 C-6.06846421 3.04674515 -3.25667829 1.38847049 0 0 Z " fill="#A0A6BD" transform="translate(73,58)"/>
<path d="M0 0 C0.33 0 0.66 0 1 0 C1.33 5.61 1.66 11.22 2 17 C2.66 17 3.32 17 4 17 C4.04898438 16.16855469 4.09796875 15.33710937 4.1484375 14.48046875 C4.26058594 12.85044922 4.26058594 12.85044922 4.375 11.1875 C4.44460937 10.10855469 4.51421875 9.02960938 4.5859375 7.91796875 C5 5 5 5 7 2 C7.3690205 13.52164009 7.3690205 13.52164009 5 19 C3.68 19 2.36 19 1 19 C0.34 19.66 -0.32 20.32 -1 21 C-1 19.68 -1 18.36 -1 17 C-1.66 16.67 -2.32 16.34 -3 16 C-2.01 16 -1.02 16 0 16 C0 10.72 0 5.44 0 0 Z " fill="#ABAECE" transform="translate(165,112)"/>
<path d="M0 0 C4.75 0.875 4.75 0.875 7 2 C7 2.66 7 3.32 7 4 C7.928125 4.2165625 7.928125 4.2165625 8.875 4.4375 C11 5 11 5 13 6 C13.33 6.99 13.66 7.98 14 9 C17.00847418 10.22520264 17.00847418 10.22520264 20 11 C18.02 11.99 18.02 11.99 16 13 C13.70367877 11.40216813 11.41300477 9.79716285 9.125 8.1875 C8.47402344 7.73568359 7.82304688 7.28386719 7.15234375 6.81835938 C6.21455078 6.15610352 6.21455078 6.15610352 5.2578125 5.48046875 C4.6817627 5.07723389 4.10571289 4.67399902 3.51220703 4.25854492 C2 3 2 3 0 0 Z " fill="#8491C9" transform="translate(50,198)"/>
<path d="M0 0 C0 4.7663147 -2.83216864 7.6017809 -6 11 C-8.87802527 13.22286505 -11.86495032 15.16077086 -15 17 C-15 14 -15 14 -12.48046875 11.15234375 C-11.39044456 10.07296693 -10.29241244 9.00163136 -9.1875 7.9375 C-8.64029297 7.39544922 -8.09308594 6.85339844 -7.52929688 6.29492188 C-5.12070585 3.93304292 -2.81353347 1.87568898 0 0 Z " fill="#8590CA" transform="translate(54,38)"/>
<path d="M0 0 C1.1875 1.5 1.1875 1.5 2 4 C1.44932481 6.09944918 0.68389877 8.00834312 -0.17578125 10 C-0.99274256 11.98238954 -1.5291126 13.91131135 -2 16 C-2.66 16 -3.32 16 -4 16 C-4.33 18.64 -4.66 21.28 -5 24 C-5.33 24 -5.66 24 -6 24 C-7.71061338 16.54661312 -6.45152034 12.93698511 -2.4453125 6.48046875 C-1.14339986 4.24610516 -0.4584072 2.52123961 0 0 Z " fill="#8591CC" transform="translate(41,76)"/>
<path d="M0 0 C2.09191827 2.09191827 2.84257533 3.62239187 4 6.3125 C4.34933594 7.11300781 4.69867188 7.91351563 5.05859375 8.73828125 C5.77980148 10.47097534 6.43593647 12.23087945 7.0625 14 C7.371875 14.66 7.68125 15.32 8 16 C8.99 16.33 9.98 16.66 11 17 C11 17.66 11 18.32 11 19 C10.01 19.33 9.02 19.66 8 20 C7.1028125 18.4221875 7.1028125 18.4221875 6.1875 16.8125 C5.82011719 16.17570312 5.45273438 15.53890625 5.07421875 14.8828125 C4.18970358 13.33249863 3.33994927 11.76240489 2.5 10.1875 C0.86766066 7.80700513 -0.3330779 7.01159114 -3 6 C-2 3 -2 3 0 0 Z " fill="#BABED3" transform="translate(105,160)"/>
<path d="M0 0 C4.89900151 0.5501155 8.48951337 2.03317639 12.8125 4.375 C13.95332031 4.98085937 15.09414062 5.58671875 16.26953125 6.2109375 C19 8 19 8 20 11 C15.80061051 9.39717958 11.77372232 7.49516522 7.75 5.5 C7.11320313 5.19191406 6.47640625 4.88382812 5.8203125 4.56640625 C1.11750796 2.23501591 1.11750796 2.23501591 0 0 Z " fill="#909ABA" transform="translate(162,60)"/>
<path d="M0 0 C4.95 0.99 4.95 0.99 10 2 C9.67 3.98 9.34 5.96 9 8 C8.67 6.68 8.34 5.36 8 4 C7.01 4.33 6.02 4.66 5 5 C4.34 9.95 3.68 14.9 3 20 C2.67 20 2.34 20 2 20 C1.93941406 18.89140625 1.87882812 17.7828125 1.81640625 16.640625 C1.73197049 15.1770718 1.64732401 13.71353075 1.5625 12.25 C1.52318359 11.52039063 1.48386719 10.79078125 1.44335938 10.0390625 C1.23608465 6.53133638 0.8559939 3.42397562 0 0 Z " fill="#DDE6FA" transform="translate(114,180)"/>
<path d="M0 0 C3 1 3 1 4.6875 3.9375 C6 7 6 7 6 9 C6.66 9 7.32 9 8 9 C8.33 9.99 8.66 10.98 9 12 C9.66 12.66 10.32 13.32 11 14 C5.35600642 16.44064587 0.02248522 16.19289099 -6 16 C-6 15.67 -6 15.34 -6 15 C-0.06 14.505 -0.06 14.505 6 14 C4.7934375 11.64875 4.7934375 11.64875 3.5625 9.25 C1.98716486 6.18011613 0.68886787 3.38891322 0 0 Z " fill="#8C96C6" transform="translate(118,139)"/>
<path d="M0 0 C4.65394781 -0.32469403 7.23358918 0.20209482 11 3 C11.33 3.66 11.66 4.32 12 5 C13.7338704 5.75243433 15.46897503 6.5024034 17.21484375 7.2265625 C19.5437633 8.2355911 21.22912829 9.16101784 23 11 C23.75 14.1875 23.75 14.1875 24 17 C22 16 22 16 21.125 14.0625 C19.77090236 11.57998766 18.57821507 11.03128603 16 10 C16 9.34 16 8.68 16 8 C14.63875 7.5978125 14.63875 7.5978125 13.25 7.1875 C10.216443 6.07908494 8.53478441 4.90108831 6 3 C4.01985568 2.27648573 2.02178685 1.59734611 0 1 C0 0.67 0 0.34 0 0 Z " fill="#8D9BCC" transform="translate(170,53)"/>
<path d="M0 0 C1.9375 0.375 1.9375 0.375 4 1 C4.33 1.66 4.66 2.32 5 3 C1.75 9.5 1.75 9.5 -2 12 C-2.05422947 10.5629191 -2.09289723 9.12524538 -2.125 7.6875 C-2.14820313 6.88699219 -2.17140625 6.08648437 -2.1953125 5.26171875 C-2 3 -2 3 0 0 Z " fill="#B9C0EF" transform="translate(146,148)"/>
<path d="M0 0 C0.99 0 1.98 0 3 0 C3.3690205 11.52164009 3.3690205 11.52164009 1 17 C0.34 17 -0.32 17 -1 17 C-1.33 17.99 -1.66 18.98 -2 20 C-2.33 19.01 -2.66 18.02 -3 17 C-2.01 15.515 -2.01 15.515 -1 14 C-0.75892674 11.71351152 -0.75892674 11.71351152 -0.875 9.3125 C-0.89304687 8.50425781 -0.91109375 7.69601563 -0.9296875 6.86328125 C-0.95289062 6.24839844 -0.97609375 5.63351563 -1 5 C-0.01 5 0.98 5 2 5 C1.67 4.34 1.34 3.68 1 3 C0.01 2.67 -0.98 2.34 -2 2 C-1.34 1.34 -0.68 0.68 0 0 Z " fill="#8792CA" transform="translate(103,121)"/>
<path d="M0 0 C3.45195767 1.4258086 5.1014256 3.09746334 7.25 6.125 C8.03117188 7.21167969 8.03117188 7.21167969 8.828125 8.3203125 C9.40820312 9.15175781 9.40820312 9.15175781 10 10 C9.67 10.66 9.34 11.32 9 12 C8.236875 11.505 7.47375 11.01 6.6875 10.5 C4.07636249 8.75631692 4.07636249 8.75631692 1 9 C0.08941469 5.92677456 -0.08886184 3.19902639 0 0 Z " fill="#8491CE" transform="translate(154,174)"/>
<path d="M0 0 C0.66 0.33 1.32 0.66 2 1 C3.20313831 7.04707779 3.20460682 12.97696588 2 19 C1.01 19.33 0.02 19.66 -1 20 C-0.67 13.4 -0.34 6.8 0 0 Z " fill="#E5E5F8" transform="translate(70,92)"/>
<path d="M0 0 C1.38802458 2.77604916 0.74123398 4.47238973 0.1875 7.5 C-0.06966797 8.96953125 -0.06966797 8.96953125 -0.33203125 10.46875 C-1 13 -1 13 -3 15 C-4.32 15 -5.64 15 -7 15 C-5.45454854 9.52067211 -2.84456788 4.88570819 0 0 Z " fill="#8591C9" transform="translate(30,65)"/>
<path d="M0 0 C-15.64948454 11 -15.64948454 11 -21 11 C-21 10.34 -21 9.68 -21 9 C-18.11331983 6.90059624 -15.72013525 5.9253694 -12.25 5 C-11.1775 4.67 -10.105 4.34 -9 4 C-8.67 3.01 -8.34 2.02 -8 1 C-4.95413501 -1.10059655 -3.45012008 -1.01261386 0 0 Z " fill="#7D8BC3" transform="translate(181,206)"/>
<path d="M0 0 C3.31523965 0.61101801 6.62655937 1.24113357 9.9375 1.875 C11.35579102 2.13603516 11.35579102 2.13603516 12.80273438 2.40234375 C13.70185547 2.57636719 14.60097656 2.75039062 15.52734375 2.9296875 C16.35999756 3.08679199 17.19265137 3.24389648 18.05053711 3.40576172 C18.69385986 3.60186035 19.33718262 3.79795898 20 4 C20.33 4.66 20.66 5.32 21 6 C13.74101807 6.41088577 6.56966186 5.28483093 0 2 C0 1.34 0 0.68 0 0 Z " fill="#828FC6" transform="translate(88,167)"/>
<path d="M0 0 C1.98 0.66 3.96 1.32 6 2 C6 2.66 6 3.32 6 4 C7.98 4.66 9.96 5.32 12 6 C12 7.65 12 9.3 12 11 C6.80546349 9.58330822 3.33817117 6.07891809 0 2 C0 1.34 0 0.68 0 0 Z " fill="#99A0C3" transform="translate(60,155)"/>
<path d="M0 0 C1.4370809 -0.05422947 2.87475462 -0.09289723 4.3125 -0.125 C5.11300781 -0.14820313 5.91351563 -0.17140625 6.73828125 -0.1953125 C9 0 9 0 12 2 C11.67 2.66 11.34 3.32 11 4 C11.99 4 12.98 4 14 4 C14 4.99 14 5.98 14 7 C8.547001 5.43181728 4.23513217 3.96189783 0 0 Z " fill="#8693D2" transform="translate(70,212)"/>
<path d="M0 0 C1.2065625 0.0309375 1.2065625 0.0309375 2.4375 0.0625 C2.4375 2.3725 2.4375 4.6825 2.4375 7.0625 C0.5625 7.6875 0.5625 7.6875 -1.5625 8.0625 C-3.5625 6.0625 -3.5625 6.0625 -3.75 3.5 C-3.4919783 0.14571793 -3.38163728 0.08247896 0 0 Z " fill="#9EB0EB" transform="translate(116.5625,203.9375)"/>
<path d="M0 0 C0.66 0 1.32 0 2 0 C2 0.99 2 1.98 2 3 C0.34634594 4.02137457 -1.32376502 5.01612294 -3 6 C-5.10025473 7.91826544 -7.03283375 9.94133764 -9 12 C-9.66 11.67 -10.32 11.34 -11 11 C-10.67 10.34 -10.34 9.68 -10 9 C-9.34 9 -8.68 9 -8 9 C-7.34 6.36 -6.68 3.72 -6 1 C-4.7934375 1.0309375 -4.7934375 1.0309375 -3.5625 1.0625 C-1.06645115 1.29633621 -1.06645115 1.29633621 0 0 Z " fill="#E8EFFC" transform="translate(171,129)"/>
<path d="M0 0 C0.99 0 1.98 0 3 0 C3 0.66 3 1.32 3 2 C4.32 2.66 5.64 3.32 7 4 C5.35 4 3.7 4 2 4 C1.938125 5.2375 1.87625 6.475 1.8125 7.75 C1.39643071 11.30550124 1.15744896 11.84639125 -1.5625 14.5 C-2.7690625 15.2425 -2.7690625 15.2425 -4 16 C-3.67 14.35 -3.34 12.7 -3 11 C-2.01 11 -1.02 11 0 11 C0.33 8.69 0.66 6.38 1 4 C0.01 3.67 -0.98 3.34 -2 3 C-1.34 2.01 -0.68 1.02 0 0 Z " fill="#7887C9" transform="translate(85,167)"/>
<path d="M0 0 C1.32 0 2.64 0 4 0 C4.33773437 0.62648437 4.67546875 1.25296875 5.0234375 1.8984375 C5.46945313 2.71570313 5.91546875 3.53296875 6.375 4.375 C6.81585938 5.18710938 7.25671875 5.99921875 7.7109375 6.8359375 C8.9443893 9.10814302 8.9443893 9.10814302 11 11 C10.01 11.33 9.02 11.66 8 12 C7.01 11.34 6.02 10.68 5 10 C5 9.01 5 8.02 5 7 C4.34 7 3.68 7 3 7 C0 2.61538462 0 2.61538462 0 0 Z " fill="#AAB8EF" transform="translate(121,141)"/>
<path d="M0 0 C1.09054688 0.02320313 2.18109375 0.04640625 3.3046875 0.0703125 C4.40039062 0.08835938 5.49609375 0.10640625 6.625 0.125 C7.46804687 0.14820313 8.31109375 0.17140625 9.1796875 0.1953125 C9.22223106 2.19485996 9.22049533 4.19572886 9.1796875 6.1953125 C8.1796875 7.1953125 8.1796875 7.1953125 4.6171875 7.2578125 C3.4828125 7.2371875 2.3484375 7.2165625 1.1796875 7.1953125 C1.1796875 6.5353125 1.1796875 5.8753125 1.1796875 5.1953125 C4.6446875 4.7003125 4.6446875 4.7003125 8.1796875 4.1953125 C8.1796875 3.2053125 8.1796875 2.2153125 8.1796875 1.1953125 C1.7446875 1.6903125 1.7446875 1.6903125 -4.8203125 2.1953125 C-2.8203125 0.1953125 -2.8203125 0.1953125 0 0 Z " fill="#8594CB" transform="translate(86.8203125,46.8046875)"/>
<path d="M0 0 C7 8.75 7 8.75 7 13 C4.625 12.8125 4.625 12.8125 2 12 C0.75 9.6875 0.75 9.6875 0 7 C-0.226875 6.29875 -0.45375 5.5975 -0.6875 4.875 C-1 3 -1 3 0 0 Z " fill="#A5B2EE" transform="translate(117,139)"/>
<path d="M0 0 C0.33 1.32 0.66 2.64 1 4 C-4.90486258 7.25369979 -4.90486258 7.25369979 -8.0234375 6.53125 C-9.9375 5.6875 -9.9375 5.6875 -13 4 C-12.67 3.34 -12.34 2.68 -12 2 C-10.14375 2.061875 -10.14375 2.061875 -8.25 2.125 C-4.98362038 2.13658291 -2.7853053 1.8568702 0 0 Z " fill="#C3CCF9" transform="translate(156,143)"/>
<path d="M0 0 C4.21543758 1.50551342 5.86049125 4.17944866 8 8 C8 9.32 8 10.64 8 12 C7.01 12 6.02 12 5 12 C4.16180842 10.37750059 3.3295884 8.75191503 2.5 7.125 C2.0359375 6.22007812 1.571875 5.31515625 1.09375 4.3828125 C0 2 0 2 0 0 Z " fill="#8995CF" transform="translate(111,139)"/>
<path d="M0 0 C-0.33 1.32 -0.66 2.64 -1 4 C-2.45463481 4.38909985 -3.91391207 4.76088029 -5.375 5.125 C-6.18710938 5.33382812 -6.99921875 5.54265625 -7.8359375 5.7578125 C-8.55007812 5.83773437 -9.26421875 5.91765625 -10 6 C-10.66 5.34 -11.32 4.68 -12 4 C-11.67 3.34 -11.34 2.68 -11 2 C-9.00390625 1.3671875 -9.00390625 1.3671875 -6.5625 0.875 C-5.75941406 0.70742188 -4.95632812 0.53984375 -4.12890625 0.3671875 C-2 0 -2 0 0 0 Z " fill="#8D95C5" transform="translate(86,55)"/>
<path d="M0 0 C6.87214452 3.05428645 12.26719191 7.16000629 18 12 C17.01 12.33 16.02 12.66 15 13 C14.34 12.67 13.68 12.34 13 12 C13 11.34 13 10.68 13 10 C12.38125 9.690625 11.7625 9.38125 11.125 9.0625 C9.75 8.375 8.375 7.6875 7 7 C7 6.34 7 5.68 7 5 C6.01 5 5.02 5 4 5 C4 4.34 4 3.68 4 3 C2.68 3 1.36 3 0 3 C0 2.01 0 1.02 0 0 Z " fill="#828FC5" transform="translate(172,29)"/>
<path d="M0 0 C1.98 0 3.96 0 6 0 C5.01 0.33 4.02 0.66 3 1 C3.66 4.3 4.32 7.6 5 11 C1 9 1 9 0 7 C-0.04022391 4.6670134 -0.04320247 2.33293334 0 0 Z " fill="#8B95C3" transform="translate(98,153)"/>
<path d="M0 0 C0.99 0.33 1.98 0.66 3 1 C2.2884375 1.495 2.2884375 1.495 1.5625 2 C-0.85791615 5.09813267 -0.68198917 8.12026792 -1 12 C-3.31 11.67 -5.62 11.34 -8 11 C-7.01 10.34 -6.02 9.68 -5 9 C-3.82065192 7.08623041 -3.82065192 7.08623041 -2.875 4.9375 C-1.07118644 1.07118644 -1.07118644 1.07118644 0 0 Z " fill="#EFF1FB" transform="translate(71,146)"/>
<path d="M0 0 C0.66 0 1.32 0 2 0 C4.09715785 3.14573677 4.52004559 5.01456251 5.125 8.6875 C5.29257813 9.68136719 5.46015625 10.67523438 5.6328125 11.69921875 C5.75398437 12.45847656 5.87515625 13.21773437 6 14 C4.68 13.67 3.36 13.34 2 13 C-0.28571429 4.57142857 -0.28571429 4.57142857 0 0 Z " fill="#7785C8" transform="translate(209,112)"/>
<path d="M0 0 C16.8929385 2.89066059 16.8929385 2.89066059 24 6 C24 6.33 24 6.66 24 7 C17.9453125 7.1953125 17.9453125 7.1953125 16 7 C15.34 6.34 14.68 5.68 14 5 C12.03790555 4.77108898 10.07525601 4.5452807 8.109375 4.3515625 C5.07420895 3.84570149 2.6461833 2.5215554 0 1 C0 0.67 0 0.34 0 0 Z " fill="#8A95CA" transform="translate(136,16)"/>
<path d="M0 0 C0.33 0.99 0.66 1.98 1 3 C3.01508358 3.73323796 3.01508358 3.73323796 5 4 C5 5.32 5 6.64 5 8 C2.36 8 -0.28 8 -3 8 C-1.125 2.25 -1.125 2.25 0 0 Z " fill="#D3D8E9" transform="translate(134,163)"/>
<path d="M0 0 C1.32 0 2.64 0 4 0 C4 0.66 4 1.32 4 2 C2.25 3.2890625 2.25 3.2890625 0 4.625 C-0.7425 5.07101563 -1.485 5.51703125 -2.25 5.9765625 C-2.8275 6.31429687 -3.405 6.65203125 -4 7 C-3.34 7.66 -2.68 8.32 -2 9 C-3.65 9.33 -5.3 9.66 -7 10 C-7.3125 7.6875 -7.3125 7.6875 -7 5 C-4.625 3.3125 -4.625 3.3125 -2 2 C-1.34 1.34 -0.68 0.68 0 0 Z " fill="#DBDBF5" transform="translate(150,160)"/>
<path d="M0 0 C0.33 0 0.66 0 1 0 C1.33 2.64 1.66 5.28 2 8 C2.66 8 3.32 8 4 8 C3.67 10.97 3.34 13.94 3 17 C2.34 17 1.68 17 1 17 C-0.18681726 13.43954823 -0.09689832 10.56191663 -0.0625 6.8125 C-0.05347656 5.54019531 -0.04445312 4.26789063 -0.03515625 2.95703125 C-0.02355469 1.98121094 -0.01195312 1.00539063 0 0 Z " fill="#CDCFF2" transform="translate(166,112)"/>
<path d="M0 0 C0 0.99 0 1.98 0 3 C2.31 3.33 4.62 3.66 7 4 C3.83759418 6.10827055 2.49342531 6.33817465 -1.1875 6.625 C-2.08855469 6.69976562 -2.98960938 6.77453125 -3.91796875 6.8515625 C-4.60503906 6.90054688 -5.29210937 6.94953125 -6 7 C-5.01 6.67 -4.02 6.34 -3 6 C-2.26676204 3.98491642 -2.26676204 3.98491642 -2 2 C-3.98 2.33 -5.96 2.66 -8 3 C-5.36657694 0.36657694 -3.69534435 0 0 0 Z " fill="#A5ACDC" transform="translate(88,53)"/>
<path d="M0 0 C0.99 0 1.98 0 3 0 C4.38671875 1.609375 4.38671875 1.609375 5.6875 3.75 C6.12449219 4.44609375 6.56148437 5.1421875 7.01171875 5.859375 C8 8 8 8 8 12 C4.3392481 10.77974937 4.07660559 9.873509 2.3125 6.5625 C1.87550781 5.75941406 1.43851562 4.95632812 0.98828125 4.12890625 C0 2 0 2 0 0 Z " fill="#8995C9" transform="translate(124,139)"/>
<path d="M0 0 C0.33 0 0.66 0 1 0 C0.97679687 0.61488281 0.95359375 1.22976562 0.9296875 1.86328125 C0.91164062 2.67152344 0.89359375 3.47976562 0.875 4.3125 C0.85179687 5.11300781 0.82859375 5.91351563 0.8046875 6.73828125 C0.84182678 9.28388576 0.84182678 9.28388576 3 12 C3.39387788 14.32387947 3.73486085 16.65793749 4 19 C1.25327885 16.37812981 -0.88477269 14.31437257 -1.23046875 10.37109375 C-1.21628906 9.40300781 -1.20210937 8.43492187 -1.1875 7.4375 C-1.18105469 6.46683594 -1.17460937 5.49617188 -1.16796875 4.49609375 C-1 2 -1 2 0 0 Z " fill="#828FC2" transform="translate(134,122)"/>
<path d="M0 0 C0.42410156 0.38671875 0.84820313 0.7734375 1.28515625 1.171875 C5.30304806 4.7394097 9.25403771 7.48173429 14 10 C12.68 10.33 11.36 10.66 10 11 C10 10.34 10 9.68 10 9 C9.0925 8.71125 8.185 8.4225 7.25 8.125 C4.67797092 7.23468224 2.38653234 6.28505587 0 5 C0 3.35 0 1.7 0 0 Z " fill="#8592C6" transform="translate(31,168)"/>
<path d="M0 0 C0.33 0 0.66 0 1 0 C1.02505615 0.55461914 1.0501123 1.10923828 1.07592773 1.68066406 C1.19227927 4.20398843 1.31482754 6.72697536 1.4375 9.25 C1.47681641 10.12269531 1.51613281 10.99539062 1.55664062 11.89453125 C1.59853516 12.73886719 1.64042969 13.58320312 1.68359375 14.453125 C1.72025146 15.22817383 1.75690918 16.00322266 1.79467773 16.80175781 C1.99603015 18.9574976 2.41729297 20.91801475 3 23 C0 21 0 21 -0.73046875 18.6171875 C-0.88128906 17.71226563 -1.03210937 16.80734375 -1.1875 15.875 C-1.34605469 14.96492188 -1.50460938 14.05484375 -1.66796875 13.1171875 C-1.77753906 12.41851562 -1.88710938 11.71984375 -2 11 C-1.34 11 -0.68 11 0 11 C0 7.37 0 3.74 0 0 Z " fill="#E6E8FB" transform="translate(59,91)"/>
<path d="M0 0 C3.96 0 7.92 0 12 0 C11.01 0.495 11.01 0.495 10 1 C10 1.66 10 2.32 10 3 C8.02 3.33 6.04 3.66 4 4 C3.67 3.01 3.34 2.02 3 1 C2.34 1 1.68 1 1 1 C0.67 3.31 0.34 5.62 0 8 C-1 5 -1 5 0 0 Z " fill="#E9EBF8" transform="translate(116,79)"/>
<path d="M0 0 C1.65 0 3.3 0 5 0 C5.70173653 4.38585329 6.10834375 8.55790643 6 13 C4.43926745 10.65890118 3.13626133 8.43666597 1.875 5.9375 C1.34519531 4.89916016 1.34519531 4.89916016 0.8046875 3.83984375 C0 2 0 2 0 0 Z " fill="#838FCA" transform="translate(194,72)"/>
<path d="M0 0 C1 3 1 3 0.0625 5.1875 C-0.288125 5.785625 -0.63875 6.38375 -1 7 C-1.66 7 -2.32 7 -3 7 C-3 7.66 -3 8.32 -3 9 C-4.96147874 10.38938077 -6.96166576 11.7260411 -9 13 C-9.66 12.67 -10.32 12.34 -11 12 C-10.37351563 11.38511719 -9.74703125 10.77023438 -9.1015625 10.13671875 C-8.28429687 9.32847656 -7.46703125 8.52023438 -6.625 7.6875 C-5.40683594 6.48673828 -5.40683594 6.48673828 -4.1640625 5.26171875 C-1.87395158 2.99990063 -1.87395158 2.99990063 0 0 Z " fill="#DCE5F7" transform="translate(203,184)"/>
<path d="M0 0 C0.33 0.66 0.66 1.32 1 2 C5.95 2 10.9 2 16 2 C15.01 2.33 14.02 2.66 13 3 C13 3.99 13 4.98 13 6 C12.505 5.690625 12.01 5.38125 11.5 5.0625 C8.02013219 3.58355618 4.75971491 3.37597149 1 3 C0.67 3.99 0.34 4.98 0 6 C-1.125 2.25 -1.125 2.25 0 0 Z " fill="#C8D0F4" transform="translate(104,136)"/>
<path d="M0 0 C0.33 0 0.66 0 1 0 C1 4.95 1 9.9 1 15 C0.01 14.67 -0.98 14.34 -2 14 C-2.21192221 8.80790596 -1.5912689 4.873261 0 0 Z " fill="#7688C8" transform="translate(24,144)"/>
<path d="M0 0 C0.66 0 1.32 0 2 0 C3.43445114 2.86890229 3.43073118 5.73804294 3.71875 8.90625 C3.892155 11.05443933 3.892155 11.05443933 5 13 C5.06950541 14.54023996 5.08452357 16.08334988 5.0625 17.625 C5.05347656 18.44226563 5.04445312 19.25953125 5.03515625 20.1015625 C5.02355469 20.72804688 5.01195312 21.35453125 5 22 C4.67 22 4.34 22 4 22 C3.52006844 19.45847565 3.04103273 16.91678778 2.5625 14.375 C2.42779297 13.66214844 2.29308594 12.94929688 2.15429688 12.21484375 C1.38981729 8.15004987 0.66330363 4.08285925 0 0 Z " fill="#A5ADD7" transform="translate(206,106)"/>
<path d="M0 0 C0 0.99 0 1.98 0 3 C-2.97 3.66 -5.94 4.32 -9 5 C-8.67 4.34 -8.34 3.68 -8 3 C-9.65 2.67 -11.3 2.34 -13 2 C-13 1.67 -13 1.34 -13 1 C-8.60563789 0.14256349 -4.47427924 -0.08948558 0 0 Z " fill="#D9E1F9" transform="translate(95,48)"/>
<path d="M0 0 C0.66 0 1.32 0 2 0 C2 0.66 2 1.32 2 2 C2.66 2.33 3.32 2.66 4 3 C3.01 3.66 2.02 4.32 1 5 C-0.20450304 7.55183404 -0.20450304 7.55183404 -1 10 C-3.64 9.67 -6.28 9.34 -9 9 C-9 8.67 -9 8.34 -9 8 C-6.36 8 -3.72 8 -1 8 C-1.020625 7.05125 -1.04125 6.1025 -1.0625 5.125 C-1 2 -1 2 0 0 Z " fill="#E4EBFA" transform="translate(97,121)"/>
<path d="M0 0 C0.33 0 0.66 0 1 0 C1.19601608 1.74906659 1.38147403 3.49931846 1.5625 5.25 C1.66691406 6.22453125 1.77132812 7.1990625 1.87890625 8.203125 C1.98974468 10.7631352 1.77738092 12.58148159 1 15 C-0.32 15.33 -1.64 15.66 -3 16 C-2.01 10.72 -1.02 5.44 0 0 Z " fill="#DEE0F7" transform="translate(127,84)"/>
<path d="M0 0 C1.2065625 0.0309375 1.2065625 0.0309375 2.4375 0.0625 C1.82472388 3.02425123 1.18377478 4.44308783 -0.5625 7.0625 C-1.5525 7.5575 -1.5525 7.5575 -2.5625 8.0625 C-2.94313221 5.7364143 -3.27519945 3.40194736 -3.5625 1.0625 C-2.5625 0.0625 -2.5625 0.0625 0 0 Z " fill="#DBE0F6" transform="translate(123.5625,81.9375)"/>
<path d="M0 0 C-1.70625501 2.78388975 -2.47626739 3.85384206 -5.6875 4.75 C-6.8321875 4.87375 -6.8321875 4.87375 -8 5 C-8 4.34 -8 3.68 -8 3 C-8.66 3 -9.32 3 -10 3 C-10 2.34 -10 1.68 -10 1 C-6.52674819 -0.1577506 -3.63932552 -0.06866652 0 0 Z " fill="#F1F7FE" transform="translate(88,50)"/>
<path d="M0 0 C0.66 0.33 1.32 0.66 2 1 C1.34 1.474375 0.68 1.94875 0 2.4375 C-2.89658976 6.14875563 -2.34969446 9.45397207 -2 14 C-4.97 13.505 -4.97 13.505 -8 13 C-6.68 12.67 -5.36 12.34 -4 12 C-4.12375 10.14375 -4.12375 10.14375 -4.25 8.25 C-4.2737948 4.89493302 -4.19641677 4.24552096 -2 1.5 C-1.34 1.005 -0.68 0.51 0 0 Z " fill="#DEE2F5" transform="translate(74,146)"/>
<path d="M0 0 C0.33 0.66 0.66 1.32 1 2 C0.34 2 -0.32 2 -1 2 C-1 3.98 -1 5.96 -1 8 C-2.8125 9.0625 -2.8125 9.0625 -5 10 C-5.99 9.67 -6.98 9.34 -8 9 C-8 8.34 -8 7.68 -8 7 C-7.38125 6.938125 -6.7625 6.87625 -6.125 6.8125 C-3.72882071 6.18259554 -3.72882071 6.18259554 -2.875 3.5 C-2.58625 2.675 -2.2975 1.85 -2 1 C-1.34 0.67 -0.68 0.34 0 0 Z " fill="#8999CC" transform="translate(100,124)"/>
<path d="M0 0 C0.66 0.33 1.32 0.66 2 1 C3.66194453 1.35613097 5.328451 1.69208308 7 2 C4.14058377 4.85941623 0.96609544 5.51403574 -3 6 C-5.5 5.125 -5.5 5.125 -7 4 C-1.7265625 0.77734375 -1.7265625 0.77734375 0 0 Z " fill="#9AA3C9" transform="translate(73,58)"/>
<path d="M0 0 C4.16138263 -0.08159574 7.9472484 0.01751476 12 1 C12 1.33 12 1.66 12 2 C9.36 2 6.72 2 4 2 C4.66 2.33 5.32 2.66 6 3 C6 3.66 6 4.32 6 5 C3.69 4.34 1.38 3.68 -1 3 C-0.67 2.01 -0.34 1.02 0 0 Z " fill="#DCE5FB" transform="translate(145,48)"/>
<path d="M0 0 C0.33 0.66 0.66 1.32 1 2 C0.01 3.485 0.01 3.485 -1 5 C-1.99 5 -2.98 5 -4 5 C-4 5.66 -4 6.32 -4 7 C-4.66 7 -5.32 7 -6 7 C-6.33 7.66 -6.66 8.32 -7 9 C-7.99 8.34 -8.98 7.68 -10 7 C-6.7 4.69 -3.4 2.38 0 0 Z " fill="#8391C9" transform="translate(65,30)"/>
<path d="M0 0 C0.33 0.66 0.66 1.32 1 2 C0.34 2 -0.32 2 -1 2 C-1.21398437 2.62390625 -1.42796875 3.2478125 -1.6484375 3.890625 C-3.53556697 6.83585597 -5.27476726 6.97087611 -8.625 7.75 C-10.12933594 8.11351562 -10.12933594 8.11351562 -11.6640625 8.484375 C-12.43492187 8.65453125 -13.20578125 8.8246875 -14 9 C-12.6133891 6.2267782 -10.90063662 5.81943306 -8.125 4.5 C-5.23969 3.12043487 -2.66921004 1.77947336 0 0 Z " fill="#CFDAF1" transform="translate(174,162)"/>
<path d="M0 0 C5.71658336 -0.45732667 8.48649253 0.47726246 13 4 C10.09905209 5.45047396 8.44027404 4.45356803 5.375 3.5625 C4.37210938 3.27503906 3.36921875 2.98757812 2.3359375 2.69140625 C1.56507813 2.46324219 0.79421875 2.23507813 0 2 C0 1.34 0 0.68 0 0 Z " fill="#8E9AD0" transform="translate(144,122)"/>
<path d="M0 0 C0.66 0.66 1.32 1.32 2 2 C-0.31 5.3 -2.62 8.6 -5 12 C-6 9 -6 9 -5 6 C-4.34 6 -3.68 6 -3 6 C-2.690625 5.195625 -2.38125 4.39125 -2.0625 3.5625 C-1 1 -1 1 0 0 Z " fill="#ABB5DD" transform="translate(132,170)"/>
<path d="M0 0 C0.53625 0.37125 1.0725 0.7425 1.625 1.125 C-1.38117269 4.13117269 -4.19881598 3.72085316 -8.375 4.125 C-8.375 3.135 -8.375 2.145 -8.375 1.125 C-2.95961538 -1.09038462 -2.95961538 -1.09038462 0 0 Z " fill="#7888C8" transform="translate(168.375,163.875)"/>
<path d="M0 0 C2.3431213 0.25561323 4.67843403 0.59270772 7 1 C8.35439668 3.70879335 8.06501451 6.00933268 8 9 C7.34 9 6.68 9 6 9 C6 7.35 6 5.7 6 4 C4.35 3.67 2.7 3.34 1 3 C0.67 2.01 0.34 1.02 0 0 Z " fill="#EBEBF8" transform="translate(159,143)"/>
<path d="M0 0 C1.32 0 2.64 0 4 0 C4 1.32 4 2.64 4 4 C2.35 4 0.7 4 -1 4 C-1 4.99 -1 5.98 -1 7 C-1.99 6.67 -2.98 6.34 -4 6 C-2.25 3 -2.25 3 0 0 Z " fill="#7E89C6" transform="translate(134,171)"/>
<path d="M0 0 C4.95 0 9.9 0 15 0 C10.0753753 3.69346852 8.8933514 3.56127156 3 3 C2.01 2.01 1.02 1.02 0 0 Z " fill="#8D97D5" transform="translate(141,143)"/>
<path d="M0 0 C3.55007718 3.9050849 4.81819916 6.97734643 6 12 C4.68 11.67 3.36 11.34 2 11 C1.34 7.37 0.68 3.74 0 0 Z " fill="#8893C9" transform="translate(211,68)"/>
<path d="M0 0 C0.66 0 1.32 0 2 0 C1.125 7.75 1.125 7.75 0 10 C-0.66 10 -1.32 10 -2 10 C-1.125 2.25 -1.125 2.25 0 0 Z " fill="#C1CBED" transform="translate(137,152)"/>
<path d="M0 0 C0.99 0.33 1.98 0.66 3 1 C2.67 2.65 2.34 4.3 2 6 C1.34 6 0.68 6 0 6 C-0.28875 6.639375 -0.5775 7.27875 -0.875 7.9375 C-2 10 -2 10 -4 11 C-4.33 10.01 -4.66 9.02 -5 8 C-3.68 7.67 -2.36 7.34 -1 7 C-0.67 4.69 -0.34 2.38 0 0 Z " fill="#8997D0" transform="translate(161,132)"/>
<path d="M0 0 C0.99 0 1.98 0 3 0 C3 4.95 3 9.9 3 15 C0.22957891 12.22957891 0.60203894 10.23466195 0.375 6.375 C0.30023438 5.18648437 0.22546875 3.99796875 0.1484375 2.7734375 C0.09945312 1.85820312 0.05046875 0.94296875 0 0 Z " fill="#A6AFD7" transform="translate(141,160)"/>
<path d="M0 0 C-0.33 0.99 -0.66 1.98 -1 3 C-4.67566856 4.61729417 -9.07239675 4.06546005 -13 4 C-8.68630028 1.12420019 -5.19265239 0 0 0 Z " fill="#DCE4F7" transform="translate(136,151)"/>
<path d="M0 0 C2.4375 0.8125 2.4375 0.8125 5.4375 2.8125 C1.92878216 4.72634609 0.62382214 4.85526246 -3.375 3.9375 C-4.426875 3.56625 -5.47875 3.195 -6.5625 2.8125 C-4.23417856 0.65664681 -3.2371617 -0.23686549 0 0 Z " fill="#8D9EC9" transform="translate(160.5625,57.1875)"/>
<path d="M0 0 C0.5534764 2.07553648 1 3.84365964 1 6 C0.34 6 -0.32 6 -1 6 C-1.33 9.63 -1.66 13.26 -2 17 C-2.33 17 -2.66 17 -3 17 C-3.55353075 5.47835991 -3.55353075 5.47835991 0 0 Z " fill="#A7B0D7" transform="translate(135,116)"/>
<path d="M0 0 C2.475 0.495 2.475 0.495 5 1 C5 1.99 5 2.98 5 4 C6.32 4.66 7.64 5.32 9 6 C8.34 6.66 7.68 7.32 7 8 C5.83035398 6.8572081 4.66435444 5.71068285 3.5 4.5625 C2.8503125 3.92441406 2.200625 3.28632813 1.53125 2.62890625 C0 1 0 1 0 0 Z " fill="#7F8EC8" transform="translate(42,190)"/>
<path d="M0 0 C1.98 0 3.96 0 6 0 C6.66 1.32 7.32 2.64 8 4 C4.28400809 4.20086443 3.22791555 4.1519437 0 2 C0 1.34 0 0.68 0 0 Z " fill="#E8EEFA" transform="translate(76,160)"/>
<path d="M0 0 C1.60226148 4.00565371 0.47694566 7.08609399 -1 11 C-1.99 11.33 -2.98 11.66 -4 12 C-3.52309796 10.37433394 -3.04340334 8.74948689 -2.5625 7.125 C-2.29566406 6.22007812 -2.02882812 5.31515625 -1.75390625 4.3828125 C-1 2 -1 2 0 0 Z " fill="#DFECFB" transform="translate(220,152)"/>
<path d="M0 0 C0.66 0 1.32 0 2 0 C1.375 1.875 1.375 1.875 0 4 C-3.57596926 5.50985369 -7.18507894 6.32677864 -11 7 C-7.78601163 4.24515283 -4.97689767 2.43610194 -1 1 C-0.67 0.67 -0.34 0.34 0 0 Z " fill="#AFB5CE" transform="translate(180,154)"/>
<path d="M0 0 C3 1 3 1 4.1875 2.875 C5 5 5 5 5 8 C4.01 8 3.02 8 2 8 C0.74335022 5.09399739 0 3.20395416 0 0 Z " fill="#8892CA" transform="translate(106,139)"/>
<path d="M0 0 C1.32 0 2.64 0 4 0 C4 1.98 4 3.96 4 6 C3.34 6 2.68 6 2 6 C2 5.01 2 4.02 2 3 C0.35 3.33 -1.3 3.66 -3 4 C-1.75 2 -1.75 2 0 0 Z " fill="#A0A7CB" transform="translate(141,110)"/>
<path d="M0 0 C2.9719385 1.12451727 5.33440687 2.22293791 8 4 C8 4.66 8 5.32 8 6 C3 4 3 4 -2 2 C-1.34 1.34 -0.68 0.68 0 0 Z " fill="#C1C5D1" transform="translate(174,65)"/>
<path d="M0 0 C0.33 0.99 0.66 1.98 1 3 C0.07421875 4.82421875 0.07421875 4.82421875 -1.3125 6.6875 C-1.76238281 7.31011719 -2.21226563 7.93273438 -2.67578125 8.57421875 C-3.11277344 9.04472656 -3.54976562 9.51523438 -4 10 C-4.66 10 -5.32 10 -6 10 C-4.6302836 6.00499382 -2.74277578 3.19990508 0 0 Z " fill="#8C98CA" transform="translate(37,55)"/>
<path d="M0 0 C0.66 0 1.32 0 2 0 C2 2.31 2 4.62 2 7 C0.68 7 -0.64 7 -2 7 C-2 6.01 -2 5.02 -2 4 C-1.34 4 -0.68 4 0 4 C0 2.68 0 1.36 0 0 Z " fill="#D8D9DF" transform="translate(126,166)"/>
<path d="M0 0 C1.32 0.66 2.64 1.32 4 2 C4 2.66 4 3.32 4 4 C-2.625 4.25 -2.625 4.25 -6 2 C-4.02 2 -2.04 2 0 2 C0 1.34 0 0.68 0 0 Z " fill="#D3DCF5" transform="translate(104,167)"/>
<path d="M0 0 C3 1 3 1 4.1875 2.875 C5 5 5 5 5 8 C2 7 2 7 0.8125 5.125 C0 3 0 3 0 0 Z " fill="#8F97C0" transform="translate(131,139)"/>
<path d="M0 0 C-1.13499394 3.29148243 -1.99283376 3.9959869 -5.125 5.75 C-6.548125 6.36875 -6.548125 6.36875 -8 7 C-8.66 6.34 -9.32 5.68 -10 5 C-8.71186658 4.16121545 -7.41936744 3.32913217 -6.125 2.5 C-5.40570313 2.0359375 -4.68640625 1.571875 -3.9453125 1.09375 C-2 0 -2 0 0 0 Z " fill="#DBE2F3" transform="translate(96,97)"/>
<path d="M0 0 C1 3 1 3 0.22265625 5.04296875 C-0.16019531 5.75066406 -0.54304688 6.45835938 -0.9375 7.1875 C-1.31777344 7.90292969 -1.69804688 8.61835937 -2.08984375 9.35546875 C-2.54037109 10.16951172 -2.54037109 10.16951172 -3 11 C-3.66 11 -4.32 11 -5 11 C-3.92289822 6.69159287 -2.96052484 3.36423277 0 0 Z " fill="#CED6F2" transform="translate(49,65)"/>
<path d="M0 0 C2.97 0 5.94 0 9 0 C9 0.99 9 1.98 9 3 C6.1875 3.1875 6.1875 3.1875 3 3 C2.01 2.01 1.02 1.02 0 0 Z " fill="#808BCA" transform="translate(70,212)"/>
<path d="M0 0 C0.33 0 0.66 0 1 0 C1 1.98 1 3.96 1 6 C-0.65 6.33 -2.3 6.66 -4 7 C-3.67 5.68 -3.34 4.36 -3 3 C-2.34 3.33 -1.68 3.66 -1 4 C-0.67 2.68 -0.34 1.36 0 0 Z " fill="#A0ACE2" transform="translate(125,185)"/>
<path d="M0 0 C1.32 0.33 2.64 0.66 4 1 C4 2.65 4 4.3 4 6 C2.68 6 1.36 6 0 6 C0 4.02 0 2.04 0 0 Z " fill="#DBDBE3" transform="translate(112,163)"/>
<path d="M0 0 C0.99 0 1.98 0 3 0 C2.49396008 2.16874252 2.00016187 3.99967627 1 6 C-1.0625 6.625 -1.0625 6.625 -3 7 C-1.125 2.25 -1.125 2.25 0 0 Z " fill="#A6ABBD" transform="translate(100,85)"/>
<path d="M0 0 C0.625 1.875 0.625 1.875 1 4 C0.34 4.66 -0.32 5.32 -1 6 C-2.32 6 -3.64 6 -5 6 C-4.67 4.68 -4.34 3.36 -4 2 C-2.68 2 -1.36 2 0 2 C0 1.34 0 0.68 0 0 Z " fill="#7E8ACF" transform="translate(28,74)"/>
<path d="M0 0 C1.32 0.33 2.64 0.66 4 1 C1.36 2.98 -1.28 4.96 -4 7 C-4 4 -4 4 -2.25 1.75 C-1.5075 1.1725 -0.765 0.595 0 0 Z " fill="#818BC3" transform="translate(186,198)"/>
<path d="M0 0 C0.99 0 1.98 0 3 0 C3 1.98 3 3.96 3 6 C0.03 5.505 0.03 5.505 -3 5 C-2.01 4.34 -1.02 3.68 0 3 C0 2.01 0 1.02 0 0 Z " fill="#D5DAF2" transform="translate(83,160)"/>
<path d="M0 0 C0.66 0 1.32 0 2 0 C2.33 2.97 2.66 5.94 3 9 C2.01 8.34 1.02 7.68 0 7 C-0.1875 3.375 -0.1875 3.375 0 0 Z " fill="#D8E0FB" transform="translate(102,155)"/>
<path d="M0 0 C2.62386487 3.06117568 3 3.73173127 3 8 C1.68 7.34 0.36 6.68 -1 6 C-0.67 4.02 -0.34 2.04 0 0 Z " fill="#B0BDF5" transform="translate(117,139)"/>
<path d="M0 0 C-0.33 1.32 -0.66 2.64 -1 4 C-2.65 4 -4.3 4 -6 4 C-6 3.01 -6 2.02 -6 1 C-3.92446352 0.4465236 -2.15634036 0 0 0 Z " fill="#7A87C6" transform="translate(86,55)"/>
<path d="M0 0 C1 2 1 2 0.375 4 C-1.39265071 6.57112831 -3.07589059 7.07659703 -6 8 C-4.02 5.36 -2.04 2.72 0 0 Z " fill="#9CA7D5" transform="translate(81,178)"/>
<path d="M0 0 C1.65 1.65 3.3 3.3 5 5 C4.01 5.66 3.02 6.32 2 7 C1.01 6.34 0.02 5.68 -1 5 C-0.67 3.35 -0.34 1.7 0 0 Z " fill="#A5B2E1" transform="translate(127,146)"/>
<path d="M0 0 C2.89932357 2.39509338 3.50168276 4.31245243 4 8 C3.01 7.67 2.02 7.34 1 7 C0.67 4.69 0.34 2.38 0 0 Z " fill="#D7DFFA" transform="translate(133,135)"/>
<path d="M0 0 C2.79872437 2.52788007 4.45773019 4.20411134 5 8 C4.01 8.33 3.02 8.66 2 9 C1.34 6.03 0.68 3.06 0 0 Z " fill="#8997CB" transform="translate(206,60)"/>
<path d="M0 0 C0.66 0 1.32 0 2 0 C2.77321882 2.98241547 3.41196203 5.97580475 4 9 C3.01 8.67 2.02 8.34 1 8 C0.67 5.36 0.34 2.72 0 0 Z " fill="#7687C9" transform="translate(193,64)"/>
<path d="M0 0 C0.66 0.33 1.32 0.66 2 1 C0.68 2.65 -0.64 4.3 -2 6 C-2.99 5.01 -3.98 4.02 -5 3 C-2.625 1.4375 -2.625 1.4375 0 0 Z " fill="#828FCB" transform="translate(207,176)"/>
<path d="M0 0 C0.99 0.33 1.98 0.66 3 1 C3 1.66 3 2.32 3 3 C3.99 3.33 4.98 3.66 6 4 C6 4.66 6 5.32 6 6 C5.01 6.33 4.02 6.66 3 7 C0 2.25 0 2.25 0 0 Z " fill="#A9B3DB" transform="translate(110,173)"/>
<path d="M0 0 C0 0.66 0 1.32 0 2 C-2.95664519 3.4783226 -5.74229737 3.06032783 -9 3 C-4.5 0 -4.5 0 0 0 Z " fill="#F2F7FD" transform="translate(131,154)"/>
<path d="M0 0 C2.64 0 5.28 0 8 0 C7.0409375 0.433125 7.0409375 0.433125 6.0625 0.875 C3.84793921 1.82823451 3.84793921 1.82823451 3 4 C2.01 3.67 1.02 3.34 0 3 C0 2.01 0 1.02 0 0 Z " fill="#7F8BB9" transform="translate(75,132)"/>
<path d="M0 0 C0.33 0.66 0.66 1.32 1 2 C-0.3125 4.625 -0.3125 4.625 -2 7 C-2.66 7 -3.32 7 -4 7 C-4 7.66 -4 8.32 -4 9 C-4.66 8.67 -5.32 8.34 -6 8 C-5.67 7.34 -5.34 6.68 -5 6 C-4.34 6 -3.68 6 -3 6 C-2.690625 5.195625 -2.38125 4.39125 -2.0625 3.5625 C-1 1 -1 1 0 0 Z " fill="#DDE5F2" transform="translate(102,88)"/>
</svg>
